<?xml version="1.0" encoding="utf-8"?>
<!-- Generator: Adobe Illustrator 22.1.0, SVG Export Plug-In . SVG Version: 6.00 Build 0)  -->
<svg version="1.1" id="Layer_1" xmlns="http://www.w3.org/2000/svg" xmlns:xlink="http://www.w3.org/1999/xlink" x="0px" y="0px"
	 viewBox="0 0 500 500" style="enable-background:new 0 0 500 500;" xml:space="preserve">
<style type="text/css">
	.st0{fill:#1D1D1B;}
</style>
<g>
	<path class="st0" d="M250,479.1c-126.7,0-229.7-103-229.7-229.7c0-126.7,103-229.7,229.7-229.7c126.7,0,229.7,103.1,229.7,229.7
		C479.7,376.1,376.7,479.1,250,479.1 M250,23.5c-124.6,0-226,101.4-226,226c0,124.6,101.4,226,226,226c124.6,0,226-101.4,226-226
		C476,124.8,374.6,23.5,250,23.5"/>
	<path class="st0" d="M250,487.8c-131.4,0-238.4-106.9-238.4-238.3S118.6,11.1,250,11.1c131.4,0,238.4,106.9,238.4,238.4
		S381.4,487.8,250,487.8 M250,14.8c-129.4,0-234.6,105.2-234.6,234.6C15.4,378.8,120.7,484,250,484c129.4,0,234.6-105.2,234.6-234.6
		C484.6,120.1,379.4,14.8,250,14.8"/>
	<path class="st0" d="M250.2,432.6c-101,0-183.2-82.2-183.2-183.2c0-101,82.2-183.2,183.2-183.2c101,0,183.2,82.2,183.2,183.2
		C433.4,350.4,351.2,432.6,250.2,432.6 M250.2,69.9c-99,0-179.5,80.5-179.5,179.5c0,99,80.5,179.5,179.5,179.5
		c99,0,179.5-80.5,179.5-179.5C429.7,150.5,349.1,69.9,250.2,69.9"/>
	<path class="st0" d="M250.2,424.9c-96.8,0-175.5-78.7-175.5-175.5c0-96.8,78.7-175.5,175.5-175.5c96.8,0,175.5,78.7,175.5,175.5
		C425.7,346.2,347,424.9,250.2,424.9 M250.2,77.7c-94.7,0-171.7,77.1-171.7,171.8c0,94.7,77,171.8,171.7,171.8
		c94.7,0,171.8-77,171.8-171.8C421.9,154.7,344.9,77.7,250.2,77.7"/>
	<path class="st0" d="M57.5,338.5l1.3,2.6c-0.1,0.2-0.2,0.4-0.3,0.8c-0.1,0.4-0.2,0.8-0.2,1.3c0,0.5,0,1.1,0.2,1.7
		c0.1,0.7,0.4,1.4,0.8,2.1c0.5,0.9,0.9,1.6,1.3,2c0.4,0.5,0.7,0.8,1.1,1c0.3,0.2,0.6,0.3,0.9,0.2c0.3,0,0.6-0.1,0.9-0.3l1.9-1
		c0.3-0.1,0.4-0.3,0.5-0.5c0.1-0.2,0.2-0.6,0.2-1.1c0-0.5,0-1.1-0.1-1.9c-0.1-0.8-0.1-1.8-0.2-3.1c0-0.9-0.1-1.8-0.2-2.7
		c-0.1-0.9-0.1-1.7,0-2.5c0.1-0.8,0.3-1.5,0.7-2.2c0.4-0.7,1.1-1.3,2.1-1.8l2.1-1.1c0.8-0.4,1.6-0.7,2.4-0.7
		c0.8-0.1,1.6,0.1,2.3,0.5c0.8,0.4,1.5,1.1,2.3,2c0.8,0.9,1.6,2.2,2.4,3.8c0.9,1.8,1.6,3.3,2,4.6c0.4,1.3,0.6,2.4,0.6,3.1l-4.8,2.5
		l-1.2-2.3c0.1-0.1,0.2-0.3,0.4-0.6c0.1-0.3,0.2-0.6,0.2-1.1c0-0.4-0.1-1-0.2-1.6c-0.2-0.6-0.4-1.3-0.9-2.2
		c-0.6-1.1-1.1-1.9-1.6-2.3c-0.5-0.5-1.1-0.6-1.7-0.3l-0.9,0.4c-0.3,0.2-0.5,0.3-0.7,0.5c-0.2,0.2-0.3,0.5-0.3,1c0,0.5,0,1.2,0,2.2
		c0.1,1,0.1,2.3,0.2,4c0.1,1.3,0.1,2.5,0.1,3.4c0,0.9-0.2,1.7-0.4,2.3c-0.3,0.6-0.6,1.2-1.1,1.7c-0.5,0.5-1.2,0.9-2.1,1.4l-2.6,1.4
		c-0.7,0.3-1.4,0.5-2.1,0.5c-0.8,0-1.5-0.2-2.3-0.7c-0.8-0.4-1.5-1-2.2-1.8c-0.7-0.8-1.4-1.8-2-2.9c-0.9-1.7-1.5-3.1-2-4.2
		c-0.4-1.1-0.7-2-0.9-2.8c-0.2-0.7-0.2-1.4-0.2-1.8c0-0.5,0-0.9,0.1-1.4L57.5,338.5z"/>
	<path class="st0" d="M70.2,368.7c-0.2,0.1-0.5,0.3-0.8,0.6c-0.3,0.3-0.5,0.6-0.6,1l-1.6-0.4l-2.6-4l0.3-1.6c0.4,0.1,0.8,0,1.2-0.1
		c0.4-0.2,0.7-0.3,0.8-0.4l17.4-11.2c0.2-0.1,0.5-0.3,0.8-0.6c0.3-0.3,0.5-0.6,0.6-1.1l1.6,0.4l2.6,4l-0.3,1.6c-0.2,0-0.4,0-0.7,0
		c-0.2,0.1-0.5,0.1-0.7,0.2c-0.3,0.1-0.5,0.2-0.8,0.4L70.2,368.7z"/>
	<path class="st0" d="M92,364c0.3-0.3,0.6-0.5,0.7-0.7c0.2-0.2,0.3-0.4,0.4-0.5c0.1-0.2,0.1-0.4,0.2-0.5l1.6,0.2l2.9,3.8l-0.2,1.6
		c-0.2,0-0.4,0-0.6,0c-0.4,0.1-0.9,0.3-1.4,0.7l-14.9,11.6l3.4,4.4c0.3,0.4,0.6,0.7,0.9,0.8c0.3,0.2,0.6,0.3,0.9,0.3
		c0.3,0,0.7,0,1-0.1l1.4,1.8l-4.5,3.5c-0.3-0.1-0.7-0.3-1.1-0.7c-0.4-0.3-0.8-0.6-1.3-1.1c-0.5-0.5-1-1.1-1.6-1.9l-6.7-8.7l1.3-2.3
		c0.2,0.1,0.4,0.1,0.7,0.1c0.3,0,0.6-0.1,1-0.3c0.4-0.2,0.8-0.4,1.3-0.8L92,364z"/>
	<path class="st0" d="M104.6,380c0.3-0.3,0.6-0.6,0.7-0.9c0.2-0.3,0.3-0.5,0.4-0.6c0-0.2,0.1-0.4,0.1-0.5l1.7,0l7.1,7.3
		c0.7,0.7,1.3,1.5,1.7,2.4c0.4,0.9,0.7,1.8,0.7,2.7c0,0.9-0.1,1.9-0.4,2.8c-0.4,0.9-1,1.8-1.8,2.7l-1.8,1.8c-1,1-2.1,1.7-3.2,2.1
		c-1.1,0.4-2.3,0.5-3.4,0.4c-1.1-0.1-2.2-0.4-3.3-1c-1.1-0.5-2-1.3-2.9-2.1c-0.2-0.1-0.3-0.3-0.5-0.5c-0.2-0.2-0.4-0.5-0.6-0.7
		c-0.2-0.2-0.4-0.5-0.5-0.7c-0.1-0.2-0.2-0.4-0.3-0.6l-4.1,4.1c-0.2,0.2-0.4,0.4-0.6,0.8c-0.2,0.4-0.3,0.7-0.4,1l-1.6,0l-3.3-3.4
		v-1.6c0.4,0,0.8-0.1,1.2-0.4c0.3-0.3,0.6-0.4,0.7-0.5L104.6,380z M101.7,391c0.1,0.3,0.3,0.7,0.6,1c0.2,0.3,0.5,0.7,0.8,1
		c0.9,1,2,1.4,3.2,1.4c1.2,0,2.2-0.4,3-1.2l1.4-1.3c0.6-0.6,0.9-1.3,0.8-1.9c-0.1-0.6-0.5-1.3-1.3-2.1l-2.5-2.6L101.7,391z"/>
	<path class="st0" d="M113.6,413.6c-0.4,0.3-0.7,0.6-1.1,0.9c-0.3,0.2-0.6,0.5-0.9,0.7c-0.3,0.2-0.6,0.4-0.7,0.6
		c-0.4,0.2-0.7,0.4-1,0.5c-0.3,0.1-0.5,0.2-0.7,0.2c-0.2,0.1-0.5,0.1-0.7,0.1l-3.2-2.6l-0.3-1.8c0.2,0,0.4-0.1,0.7-0.2
		c0.5-0.1,1.1-0.4,1.8-0.8c0.2-0.1,0.7-0.5,1.5-1c0.7-0.5,1.6-1,2.6-1.7c1-0.7,2.1-1.4,3.4-2.2c1.2-0.8,2.5-1.6,3.7-2.4
		c1.2-0.8,2.4-1.6,3.6-2.4c1.2-0.8,2.2-1.4,3.1-2c0.9-0.6,1.9-1.2,2.9-2l5.1,4.1c-0.5,1.2-0.9,2.2-1.3,3.2c-0.4,1-0.8,2.2-1.3,3.5
		c-0.5,1.3-1,2.6-1.5,4c-0.5,1.4-1,2.8-1.6,4.1c-0.5,1.4-1,2.6-1.4,3.8c-0.4,1.1-0.8,2.1-1.1,2.9c-0.3,0.8-0.5,1.4-0.6,1.7
		c-0.1,0.4-0.2,0.8-0.3,1.1c-0.1,0.3-0.1,0.6-0.1,0.8c0,0.3,0,0.5,0,0.7l-1.8,0.1l-3.2-2.6c-0.1-0.2-0.1-0.4-0.1-0.7
		c0-0.2,0-0.5,0-0.8c0-0.3,0.1-0.7,0.3-1.1c0.1-0.2,0.2-0.5,0.4-0.9c0.2-0.4,0.3-0.7,0.5-1c0.2-0.4,0.4-0.8,0.6-1.2L113.6,413.6z
		 M127.1,404.8l-0.9-0.7L117,411l5.4,4.3L127.1,404.8z"/>
	<path class="st0" d="M136.4,432.7c0,0-0.1,0.1-0.2,0.2c-0.1,0.1-0.2,0.3-0.2,0.5c-0.1,0.2-0.1,0.4-0.2,0.7c0,0.2,0,0.5,0,0.7
		l-1.6,0.4l-3.4-2c-0.1-0.4-0.2-0.8-0.2-1.2c0-0.4,0.1-0.8,0.2-1.1c0.1-0.3,0.2-0.6,0.3-0.8c0.1-0.2,0.2-0.3,0.2-0.3l10.7-17.7
		c0.1-0.2,0.3-0.5,0.4-0.8c0.1-0.2,0.1-0.5,0.2-0.7c0-0.2,0-0.4,0-0.7l1.6-0.4l3.4,2c0.1,0.5,0.2,0.9,0.1,1.3c0,0.4-0.1,0.8-0.2,1.1
		c-0.1,0.4-0.2,0.7-0.4,1l-4.3,7.2c0.5,0.2,1.3,0.3,2.2,0.3c0.9,0,1.9-0.4,3-1.2l5.4-4c0.2-0.1,0.4-0.3,0.5-0.4
		c0.1-0.2,0.3-0.3,0.4-0.5c0-0.1,0.1-0.1,0.1-0.2c0-0.1,0.1-0.1,0.1-0.2l0.1-0.2l5.8,3.5l-1,1.7c-0.2-0.1-0.4-0.1-0.7-0.1
		c-0.2,0-0.5,0.1-0.7,0.1c-0.3,0.1-0.6,0.2-0.9,0.5l-5.5,3.9c-0.6,0.4-1.1,0.7-1.6,0.9c-0.5,0.2-1,0.3-1.3,0.3
		c-0.4,0.1-0.7,0.1-0.9,0.1c-0.2,0-0.4,0-0.4,0c0.1,0.2,0.2,0.4,0.4,0.6c0.1,0.2,0.3,0.5,0.4,0.9c0.1,0.4,0.2,0.8,0.3,1.4
		c0.1,0.5,0,1.2,0,2l-0.6,6.6c0,0.5,0,0.9,0.1,1.3c0.1,0.3,0.3,0.6,0.5,0.9c0.2,0.3,0.5,0.5,0.8,0.7l-1.3,2.2
		c-0.3-0.1-0.6-0.2-1-0.4c-0.3-0.1-0.7-0.3-1.2-0.6c-0.4-0.2-0.9-0.5-1.4-0.8c-0.4-0.2-0.7-0.5-0.9-0.9c-0.2-0.4-0.4-0.7-0.5-1.2
		c-0.1-0.4-0.2-0.9-0.2-1.3c0-0.5,0-0.9,0-1.3l0.5-8.1c0-0.4,0-0.9-0.1-1.2c-0.1-0.4-0.3-0.8-0.4-1.1c-0.2-0.3-0.3-0.6-0.6-0.8
		c-0.2-0.2-0.4-0.4-0.5-0.6L136.4,432.7z"/>
	<path class="st0" d="M162.4,450.1c-1.9-0.8-3.3-1.7-4.5-2.8c-1.1-1.1-1.9-2.3-2.4-3.7c-0.4-1.4-0.5-3-0.3-4.7
		c0.3-1.7,0.9-3.7,1.8-5.9c1.9-4.4,4.2-7.2,6.8-8.4c2.6-1.2,5.7-1.1,9.4,0.5c3.6,1.6,5.9,3.8,6.8,6.5c0.9,2.8,0.4,6.3-1.6,10.7
		c-1,2.2-2,4-3.1,5.3c-1.1,1.4-2.3,2.3-3.7,3c-1.3,0.6-2.8,0.9-4.3,0.7C165.9,451.4,164.2,450.9,162.4,450.1 M164.4,445.6
		c1,0.4,1.9,0.7,2.7,0.6c0.8,0,1.5-0.2,2.2-0.7c0.7-0.4,1.3-1.1,1.9-2c0.6-0.9,1.2-2.1,1.8-3.5c0.6-1.4,1.1-2.7,1.3-3.8
		c0.3-1.1,0.3-2,0.2-2.9c-0.1-0.8-0.4-1.5-1-2.1c-0.5-0.6-1.3-1.1-2.3-1.5c-1-0.4-1.9-0.6-2.7-0.6c-0.8,0-1.5,0.3-2.2,0.7
		c-0.7,0.5-1.3,1.2-2,2.1c-0.6,0.9-1.2,2.1-1.9,3.5c-0.6,1.4-1,2.6-1.3,3.7c-0.3,1.1-0.3,2-0.2,2.8c0.1,0.8,0.5,1.5,1,2.1
		C162.6,444.6,163.4,445.1,164.4,445.6"/>
	<path class="st0" d="M188.3,434.9c0.1-0.5,0.2-0.8,0.2-1.1c0-0.3,0-0.5,0-0.7c-0.1-0.2-0.1-0.4-0.2-0.5l1.4-0.8l9.8,2.8
		c1,0.3,1.9,0.7,2.7,1.2c0.8,0.6,1.5,1.2,2,2c0.5,0.8,0.8,1.7,1,2.6c0.2,1,0.1,2.1-0.3,3.2l-0.7,2.4c-0.6,1.8-1.4,3.2-2.5,4.2
		c-1.1,1-2.5,1.6-3.9,1.9l1,5.5c0.1,0.5,0.3,0.9,0.5,1.2c0.2,0.3,0.4,0.6,0.7,0.8c0.3,0.2,0.6,0.4,0.9,0.5l-0.7,2.4
		c-0.3,0-0.7,0-1.1-0.1c-0.3-0.1-0.8-0.1-1.3-0.2c-0.5-0.1-1-0.2-1.6-0.4c-0.4-0.1-0.8-0.3-1.1-0.6c-0.3-0.3-0.6-0.6-0.8-1
		c-0.2-0.4-0.4-0.8-0.5-1.2c-0.2-0.4-0.3-0.8-0.4-1.3l-1.3-6.1c-0.4-0.1-0.8-0.3-1.2-0.5c-0.4-0.2-0.8-0.3-1-0.5l-1.6,5.6
		c-0.1,0.2-0.1,0.6-0.1,1c0,0.4,0,0.8,0.2,1.1l-1.5,0.8l-4.6-1.3l-0.8-1.4c0.4-0.2,0.6-0.5,0.8-0.9c0.2-0.4,0.3-0.7,0.3-0.8
		L188.3,434.9z M191.2,445.9c0.3,0.2,0.6,0.4,1,0.6c0.4,0.2,0.8,0.3,1.2,0.4c1.3,0.4,2.4,0.2,3.5-0.3c1-0.6,1.7-1.4,2-2.5l0.5-1.9
		c0.2-0.9,0.2-1.6-0.3-2.1c-0.4-0.5-1.1-0.9-2.1-1.2l-3.5-1L191.2,445.9z"/>
	<path class="st0" d="M229.8,467.7l-5.7-0.8l-6-15.6l-1.2-4l-0.3,4l-1.6,11c-0.1,0.4-0.1,0.7-0.1,1c0,0.3,0.1,0.5,0.1,0.7
		c0.1,0.2,0.1,0.4,0.2,0.5l-1.3,1l-4.7-0.7l-1-1.3c0.1-0.1,0.2-0.2,0.4-0.4c0.1-0.1,0.2-0.3,0.3-0.6c0.1-0.3,0.2-0.6,0.3-1l2.8-20
		c0.1-0.5,0.1-1,0.1-1.3c0-0.3-0.1-0.6-0.1-0.8c-0.1-0.2-0.2-0.4-0.2-0.5l1.3-1l4,0.6c0.4,0,0.7,0.2,1,0.5c0.3,0.3,0.6,0.7,0.8,1.2
		l5.5,13.8l1.2,3.8l0.2-3.7l1.6-11.1c0-0.4,0.1-0.7,0-0.9c0-0.3-0.1-0.5-0.1-0.6c-0.1-0.2-0.2-0.3-0.3-0.5l1.3-1l4.7,0.7l1,1.3
		c-0.1,0.1-0.3,0.3-0.4,0.4c-0.1,0.2-0.2,0.4-0.3,0.6c-0.1,0.2-0.2,0.6-0.2,0.9L229.8,467.7z"/>
	<path class="st0" d="M267,443.8c0-0.2-0.1-0.6-0.1-1c-0.1-0.4-0.3-0.8-0.6-1.1l1.1-1.2l4.8-0.3l1.2,1.1c-0.1,0.2-0.2,0.4-0.3,0.6
		c-0.1,0.2-0.1,0.5-0.1,0.7c-0.1,0.3-0.1,0.6,0,0.9l1.1,18c0,0.5-0.1,1.2-0.5,1.9c-0.4,0.7-0.9,1.4-1.5,2c-0.6,0.6-1.3,1.2-2,1.6
		c-0.8,0.5-1.4,0.7-2.1,0.7l-7,0.4c-1.1,0.1-2.1-0.1-3-0.5c-0.9-0.4-1.7-0.9-2.3-1.7c-0.6-0.7-1.2-1.6-1.6-2.6
		c-0.4-1-0.6-2.2-0.7-3.5l-0.9-15.1c0-0.2-0.1-0.6-0.1-1c-0.1-0.4-0.3-0.8-0.6-1.1l1.1-1.2l4.8-0.3l1.2,1.1
		c-0.1,0.2-0.2,0.3-0.3,0.6c-0.1,0.2-0.1,0.5-0.2,0.7c0,0.3,0,0.6,0,0.9L259,459c0.1,0.9,0.2,1.6,0.4,2.1c0.2,0.6,0.5,1,0.8,1.3
		c0.4,0.3,0.9,0.5,1.4,0.6c0.6,0.1,1.3,0.1,2.1,0l3.4-0.2c0.4,0,0.7-0.1,0.9-0.3c0.1-0.2,0.2-0.5,0.2-0.9L267,443.8z"/>
	<path class="st0" d="M305.8,461.4l-5.7,1.2L289.2,450l-2.6-3.4l1.1,3.9l2.3,10.9c0.1,0.4,0.2,0.7,0.3,0.9c0.1,0.2,0.2,0.4,0.4,0.6
		c0.1,0.2,0.3,0.3,0.4,0.4l-0.9,1.4l-4.7,1l-1.4-0.9c0.1-0.1,0.1-0.3,0.2-0.5c0-0.2,0-0.4,0.1-0.7c0-0.3,0-0.6-0.1-1l-4.2-19.8
		c-0.1-0.5-0.2-0.9-0.4-1.2c-0.1-0.3-0.2-0.5-0.3-0.7c-0.2-0.2-0.3-0.3-0.4-0.4l0.9-1.4l3.9-0.8c0.3-0.1,0.7,0,1.1,0.1
		c0.4,0.2,0.8,0.5,1.2,0.9l9.8,11.1l2.5,3.2l-1-3.6l-2.3-11c-0.1-0.3-0.2-0.6-0.3-0.9c-0.1-0.2-0.2-0.4-0.3-0.6
		c-0.2-0.2-0.3-0.3-0.4-0.4l0.9-1.4l4.7-1l1.4,0.9c-0.1,0.2-0.2,0.4-0.2,0.6c-0.1,0.2-0.1,0.4-0.1,0.7c0,0.3,0,0.6,0.1,1
		L305.8,461.4z"/>
	<path class="st0" d="M320,453.6c0.1,0.2,0.2,0.5,0.4,0.9c0.2,0.4,0.5,0.6,0.8,0.8l-0.8,1.5l-4.5,1.5l-1.5-0.7
		c0.2-0.4,0.3-0.8,0.2-1.2c-0.1-0.4-0.1-0.7-0.2-0.9l-6.4-19.7c-0.1-0.2-0.2-0.5-0.4-0.9c-0.2-0.4-0.5-0.7-0.9-0.9l0.7-1.5l4.5-1.5
		l1.5,0.8c-0.1,0.2-0.2,0.4-0.2,0.6c0,0.2,0,0.5,0,0.7c0,0.3,0.1,0.6,0.2,0.8L320,453.6z"/>
	<path class="st0" d="M335.6,451l-16.5-18.5c-0.2-0.3-0.5-0.5-0.8-0.6c-0.2-0.1-0.5-0.2-0.6-0.3c-0.2,0-0.4,0-0.6,0l-0.6-1.9
		l6.3-2.8l0.3,0.7c0.1,0.2,0.2,0.4,0.3,0.6c0.1,0.2,0.2,0.3,0.3,0.4l12.6,14.9l-2.6-19.3c-0.1-0.3-0.2-0.7-0.4-1.1l-0.3-0.7l6.2-2.8
		l1,1.7c-0.2,0.1-0.3,0.3-0.4,0.5c-0.1,0.2-0.2,0.4-0.3,0.7c-0.1,0.3-0.1,0.6-0.1,1l2.6,24.6L335.6,451z"/>
	<path class="st0" d="M364.5,430.2c0.4-0.2,0.7-0.5,0.9-0.8c0.2-0.3,0.3-0.6,0.4-0.9c0.1-0.3,0.1-0.6,0-1l2-1.2l3,4.9
		c-0.2,0.3-0.5,0.6-0.8,1c-0.3,0.3-0.7,0.7-1.2,1.1c-0.5,0.4-1.1,0.8-1.9,1.3l-10.4,6.3l-2.2-1.6c0.1-0.2,0.2-0.4,0.1-0.7
		c0-0.3,0-0.6-0.2-1c-0.1-0.4-0.3-0.8-0.6-1.4l-9.1-15c-0.2-0.3-0.4-0.5-0.6-0.7c-0.2-0.2-0.4-0.3-0.7-0.5c-0.3-0.1-0.5-0.3-0.8-0.4
		l-0.1-2l10.8-6.5c0.5-0.3,1.1-0.6,1.6-1c0.6-0.3,1-0.7,1.3-1.2l3.1,2.3c-0.1,0.5-0.2,0.9-0.5,1.4c-0.2,0.4-0.5,0.8-0.9,1.3
		c-0.4,0.4-0.9,0.9-1.6,1.3l-6.3,3.8l2.8,4.7l6.6-4l2.5,4.2l-6.5,4l3.5,5.7L364.5,430.2z"/>
	<path class="st0" d="M363.8,408.4c-0.3-0.4-0.6-0.7-0.8-0.8c-0.2-0.2-0.4-0.3-0.6-0.4c-0.2-0.1-0.4-0.1-0.5-0.2l0.2-1.6l8-6.3
		c0.8-0.6,1.7-1.1,2.6-1.4c0.9-0.3,1.9-0.5,2.8-0.4c0.9,0,1.8,0.3,2.7,0.7c0.9,0.4,1.7,1.1,2.4,2.1l1.5,2c1.1,1.5,1.8,3,1.9,4.5
		c0.1,1.5-0.1,2.9-0.8,4.3l5.1,2.4c0.4,0.2,0.9,0.3,1.2,0.3c0.4,0,0.7,0,1-0.1c0.3-0.1,0.6-0.3,0.9-0.5l1.6,2
		c-0.2,0.2-0.4,0.5-0.7,0.8c-0.2,0.3-0.6,0.6-0.9,0.9c-0.4,0.3-0.8,0.7-1.3,1.1c-0.4,0.3-0.7,0.5-1.1,0.5c-0.4,0.1-0.8,0.1-1.3,0.1
		c-0.4,0-0.9-0.1-1.3-0.3c-0.4-0.1-0.8-0.3-1.2-0.4l-5.7-2.5c-0.3,0.2-0.7,0.5-1.1,0.7c-0.4,0.2-0.7,0.4-1,0.5l3.6,4.6
		c0.1,0.2,0.4,0.4,0.7,0.7c0.3,0.3,0.7,0.4,1,0.5l-0.2,1.6l-3.7,2.9l-1.6-0.2c0.1-0.4,0-0.8-0.2-1.2c-0.2-0.4-0.4-0.6-0.5-0.7
		L363.8,408.4z M374.4,412.4c0.3-0.1,0.7-0.2,1.1-0.4c0.4-0.2,0.7-0.4,1-0.7c1.1-0.8,1.7-1.8,1.8-3c0.1-1.2-0.2-2.2-0.9-3.1
		l-1.2-1.5c-0.6-0.7-1.2-1-1.8-1c-0.7,0-1.4,0.4-2.2,1l-2.9,2.2L374.4,412.4z"/>
	<path class="st0" d="M394,405.1l2.1-2.1c0.2,0.1,0.4,0.1,0.8,0.1c0.4,0,0.8-0.1,1.3-0.2c0.5-0.1,1-0.4,1.6-0.7
		c0.6-0.3,1.2-0.8,1.8-1.4c0.7-0.7,1.2-1.3,1.5-1.8c0.3-0.5,0.5-0.9,0.6-1.3c0.1-0.4,0.1-0.7-0.1-0.9c-0.1-0.3-0.3-0.5-0.5-0.7
		l-1.5-1.5c-0.2-0.2-0.4-0.3-0.7-0.3c-0.2,0-0.6,0-1.1,0.2c-0.5,0.2-1.1,0.4-1.8,0.7c-0.8,0.3-1.7,0.7-2.9,1.1
		c-0.8,0.3-1.7,0.6-2.5,1c-0.8,0.4-1.6,0.6-2.4,0.8c-0.8,0.1-1.6,0.1-2.3,0c-0.8-0.2-1.5-0.6-2.3-1.4l-1.7-1.7
		c-0.6-0.6-1.1-1.3-1.4-2c-0.3-0.7-0.4-1.5-0.3-2.4c0.1-0.8,0.5-1.8,1.2-2.8c0.6-1,1.6-2.2,2.9-3.5c1.4-1.4,2.7-2.5,3.8-3.3
		c1.1-0.8,2.1-1.3,2.8-1.6l3.9,3.8l-1.8,1.8c-0.2-0.1-0.4-0.1-0.7-0.1c-0.3,0-0.7,0-1.1,0.2c-0.4,0.1-0.9,0.4-1.4,0.7
		c-0.5,0.3-1.1,0.8-1.8,1.5c-0.9,0.9-1.4,1.6-1.7,2.3c-0.3,0.6-0.2,1.2,0.3,1.7l0.7,0.7c0.2,0.2,0.5,0.4,0.7,0.5
		c0.2,0.1,0.6,0.1,1.1,0c0.5-0.1,1.2-0.3,2.1-0.7c0.9-0.3,2.1-0.8,3.7-1.4c1.2-0.5,2.3-0.9,3.2-1.1c0.9-0.3,1.7-0.4,2.4-0.3
		c0.7,0,1.4,0.2,2,0.6c0.6,0.3,1.3,0.9,1.9,1.5l2.1,2.1c0.5,0.5,0.9,1.2,1.1,1.9c0.2,0.7,0.2,1.5,0.1,2.4c-0.2,0.9-0.5,1.8-1,2.7
		c-0.5,0.9-1.3,1.9-2.2,2.8c-1.4,1.4-2.5,2.4-3.4,3.2c-0.9,0.8-1.7,1.3-2.4,1.7c-0.7,0.4-1.2,0.6-1.7,0.8c-0.5,0.1-0.9,0.2-1.3,0.3
		L394,405.1z"/>
	<path class="st0" d="M418.8,383.8c0.2,0.2,0.5,0.3,0.9,0.5c0.4,0.2,0.7,0.3,1.1,0.2l0.2,1.6l-3,3.7l-1.7,0.2c0-0.4-0.2-0.8-0.5-1.1
		c-0.3-0.3-0.5-0.5-0.6-0.6l-16-13.1c-0.2-0.1-0.5-0.3-0.8-0.6c-0.4-0.2-0.8-0.3-1.2-0.3l-0.2-1.6l3-3.7l1.6-0.2
		c0,0.2,0.1,0.4,0.2,0.6c0.1,0.2,0.3,0.4,0.4,0.6c0.2,0.2,0.4,0.4,0.6,0.6L418.8,383.8z"/>
	<path class="st0" d="M411.2,362.3l-1.2,1.8c-0.3,0.4-0.5,0.8-0.5,1.2c-0.1,0.4-0.1,0.7,0,1c0.1,0.3,0.2,0.6,0.3,0.9l-1.3,1.9
		l-4.7-3.2c0-0.3,0.1-0.8,0.3-1.3c0.1-0.4,0.4-0.9,0.7-1.5c0.3-0.6,0.7-1.3,1.3-2.1l5.3-7.7c0.5-0.8,1-1.4,1.5-1.9
		c0.4-0.5,0.9-0.9,1.2-1.2c0.4-0.3,0.8-0.6,1.1-0.7l4.7,3.2l-1.3,1.9c-0.3-0.1-0.6-0.1-0.9,0c-0.3,0.1-0.6,0.2-0.9,0.3
		c-0.3,0.2-0.6,0.5-0.9,0.9l-1.2,1.8l15.6,10.6c0.6,0.4,1.1,0.6,1.5,0.6c0.2,0,0.4,0,0.6,0l0.3,1.6l-2.7,3.9l-1.6,0.3
		c0-0.1-0.1-0.3-0.2-0.5c-0.1-0.1-0.2-0.3-0.4-0.5c-0.2-0.2-0.5-0.4-0.8-0.7L411.2,362.3z"/>
	<path class="st0" d="M427.4,328.3c0,0.2,0,0.4,0.1,0.6c0.1,0.4,0.3,0.9,0.7,1.5l8.4,12.7l6.2,3.2c0.6,0.3,1.1,0.5,1.5,0.4
		c0.2,0,0.4,0,0.6,0l0.5,1.6l-2.2,4.2l-1.6,0.5c-0.1-0.1-0.1-0.3-0.2-0.5c-0.1-0.1-0.3-0.3-0.5-0.5c-0.2-0.2-0.5-0.4-0.9-0.6
		l-6.6-3.4l-14.7,0.4c-0.4,0-0.7,0.1-1,0.1c-0.3,0.1-0.5,0.1-0.7,0.2c-0.2,0.1-0.4,0.2-0.5,0.3L415,348l2.9-5.7
		c0.3,0.1,0.5,0.2,0.7,0.3c0.2,0.1,0.4,0.2,0.6,0.3c0.2,0.1,0.3,0.2,0.5,0.2l9.5,0l1.6,0.2l-1-1.2l-5.5-7.8
		c-0.1-0.1-0.2-0.2-0.4-0.3c-0.2-0.1-0.3-0.2-0.5-0.4c-0.2-0.1-0.4-0.3-0.7-0.4l2.9-5.7L427.4,328.3z"/>
	<path class="st0" d="M102.8,120.5c0.7,0.5,1.3,1.2,1.8,2c0.5,0.8,0.8,1.7,1,2.7c0.1,0.5,0,1-0.1,1.5c-0.1,0.5-0.3,1-0.5,1.5
		c-0.2,0.5-0.4,0.9-0.7,1.3c-0.2,0.4-0.4,0.7-0.6,0.9c-0.7-0.1-1.4-0.2-2.1-0.3c-0.7,0-1.5,0-2.2,0.1c-0.7,0.1-1.5,0.2-2.2,0.5
		c-0.7,0.2-1.3,0.5-1.9,0.9l2.6,2c0.2,0.4,0.3,0.9,0.4,1.4c0.1,0.4,0.1,0.9,0,1.5c-0.1,0.6-0.2,1.1-0.5,1.7c-0.6,0.8-1.2,1.3-2,1.7
		c-0.7,0.4-1.4,0.6-2.2,0.6c-0.8,0-1.5-0.1-2.3-0.4c-0.8-0.3-1.5-0.7-2.2-1.3c-0.2-0.1-0.4-0.3-0.6-0.5c-0.2-0.1-0.4-0.3-0.5-0.5
		c-0.1-0.4-0.1-0.8-0.2-1.3c0-0.4,0-0.8,0-1.2c0-0.5,0.1-0.9,0.2-1.4l-5.9-4.6c-0.7-0.6-1.5-0.8-2.2-0.5c-0.7,0.2-1.3,0.7-1.9,1.4
		c-0.2,0.2-0.3,0.4-0.4,0.5l-3.1-3.4c0.4-0.8,0.9-1.4,1.2-2c0.4-0.5,0.7-1,1-1.4c0.6-0.7,1.1-1.3,1.5-1.6c0.4-0.3,0.9-0.5,1.4-0.6
		c0.6-0.1,1.3-0.1,2.1,0.1c0.8,0.2,1.5,0.6,2.3,1.2l7.8,6.2c1.1-0.8,2.2-1.5,3.4-2c1.2-0.6,2.5-1,3.9-1.2c-0.1-0.1-0.1-0.2-0.3-0.3
		l-10.5-8.2c-0.4-0.3-0.8-0.6-1.1-0.8c-0.3-0.2-0.8-0.3-1.3-0.3l-0.4-4.4c0.5-0.2,1-0.3,1.6-0.5c0.5-0.1,1.1-0.2,1.6-0.2
		c0.6,0,1.1,0,1.6,0.2c0.5,0.1,1,0.4,1.5,0.7L102.8,120.5z"/>
	<path class="st0" d="M128.7,99.7c0.4,0.4,0.7,1,0.9,1.7c0.2,0.7,0.3,1.3,0.2,1.9l-2.9,2.7l-1.9,0c0-0.4-0.1-0.8-0.3-1.2
		c-0.3-0.4-0.6-0.8-0.9-1.2l-7.2-7.7c-0.3-0.4-0.7-0.8-1-1.3c-0.3-0.5-0.6-0.9-0.9-1.4c-0.3-0.5-0.6-1-0.9-1.5c0,0.3,0,0.5,0,0.8
		c0,0.3-0.1,0.6-0.2,0.9c-0.1,0.3-0.2,0.6-0.3,0.8c-0.1,0.2-0.2,0.4-0.3,0.6c0.9,1,1.6,2.3,2.3,3.7c0.7,1.4,1.3,2.9,1.9,4.5
		c0.6,1.6,1.1,3.2,1.5,4.8c0.4,1.6,0.8,3.2,1,4.7l-6,5.6c-1.6-0.4-2.9-1-4-1.8c-1.1-0.8-2.2-1.7-3.2-2.8c-0.6-0.6-1.1-1.2-1.6-2
		c-0.5-0.7-1.1-1.4-1.6-2.1c-0.5-0.7-1-1.4-1.4-2c-0.4-0.6-0.8-1.1-1.1-1.4c-0.5-0.5-1-0.8-1.8-0.8c-0.7-0.1-1.5,0.3-2.3,1
		c-0.1,0.1-0.1,0.2-0.2,0.2c-0.1,0.1-0.1,0.1-0.1,0.2l-0.2,0.1l-2.6-3.9c0.6-0.7,1.1-1.3,1.5-1.7c0.5-0.5,0.9-0.9,1.2-1.2
		c1.4-1.3,2.7-1.9,3.9-1.7c1.2,0.2,2.3,0.8,3.4,2c0.6,0.7,1.1,1.3,1.6,2c0.4,0.7,0.8,1.3,1.2,1.9c0.4,0.6,0.8,1.3,1.3,2
		c0.4,0.7,1,1.4,1.7,2.2c0.2,0.3,0.6,0.6,0.9,0.9c0.4,0.3,0.8,0.7,1.2,1c0.4,0.3,0.8,0.7,1.3,1c0.4,0.3,0.8,0.5,1.2,0.7
		c-0.1-1-0.3-2.1-0.6-3.3c-0.2-1.2-0.6-2.4-0.9-3.6c-0.4-1.2-0.8-2.4-1.3-3.5c-0.5-1.1-1-2-1.6-2.8c-1.1,0.7-2.1,1-3.1,0.8
		c-1-0.2-1.9-0.6-2.5-1.3c-0.7-0.7-1-1.7-1.1-2.8c0-1.1,0.6-2.2,1.7-3.2c0.9-0.9,1.8-1.3,2.7-1.3c0.9,0,1.7,0.2,2.3,0.5
		c0.2-0.3,0.3-0.6,0.3-0.9c0-0.3,0.1-0.7,0-1c0-0.4-0.1-0.7-0.2-1c-0.1-0.3-0.2-0.6-0.3-0.7c0.7-0.7,1.5-1.1,2.2-1.4
		c0.8-0.2,1.5-0.3,2.2-0.3c0.7,0.1,1.4,0.3,2.1,0.6c0.7,0.4,1.3,0.9,1.9,1.4L128.7,99.7z"/>
	<path class="st0" d="M144.9,88.3c0.4,0.5,0.6,1.1,0.7,1.8c0.1,0.7,0.1,1.3-0.1,1.9l-3.3,2.3l-1.9-0.3c0.1-0.7-0.2-1.5-0.8-2.3
		l-8.7-12.4c-0.2-0.3-0.5-0.3-0.9-0.1l-4.3,3c-1,0.7-1.5,1.4-1.7,2.1l-3.7-0.6c0-0.3,0-0.6,0-0.9c0-0.3,0-0.5,0.1-0.8
		c0-0.3,0.1-0.6,0.1-0.9c0.1-0.6,0.3-1.2,0.6-1.7c0.3-0.5,0.7-0.9,1.2-1.3l6.7-4.7c1.2-0.8,2.4-1.1,3.7-0.8c1.2,0.3,2.3,1.2,3.3,2.5
		L144.9,88.3z"/>
	<path class="st0" d="M161.8,76.5c0.9,1.6,1.1,3,0.6,4.2c-0.5,1.2-1.4,2.2-2.8,3c-0.2,0.1-0.4,0.2-0.6,0.3c-0.2,0.1-0.4,0.2-0.6,0.3
		l-2.4,1l-2.9-3.7c0.1,0,0.3-0.1,0.4-0.1c0.1-0.1,0.2-0.1,0.4-0.2c0.8-0.4,1.2-1,1.5-1.6c0.2-0.7,0.1-1.4-0.3-2.2l-5.5-9.9
		c-0.2-0.4-0.5-0.4-0.9-0.2l-4.6,2.6c-0.4,0.2-0.8,0.5-1.1,0.8c-0.3,0.3-0.6,0.7-0.9,1.1l-3.6-1c0.1-0.8,0.2-1.5,0.4-2.2
		c0.2-0.6,0.4-1.1,0.7-1.7c0.3-0.6,0.8-1,1.4-1.4l7.1-3.9c1.3-0.7,2.5-0.8,3.7-0.3c1.2,0.5,2.2,1.4,3,2.8L161.8,76.5z"/>
	<path class="st0" d="M151.2,57c-1.5,0.2-3.1,0.5-4.7,1c-1.6,0.5-3.2,1.1-4.8,1.9c-1.5,0.7-3,1.6-4.3,2.5c-1.4,0.9-2.6,1.9-3.6,2.9
		l-2.4-2.6c0.1-0.3,0.3-0.7,0.7-1.4c0.4-0.6,0.9-1.3,1.7-2c0.7-0.7,1.6-1.5,2.6-2.3c1-0.8,2.3-1.5,3.6-2.2c1.6-0.8,3-1.3,4.2-1.7
		c1.3-0.4,2.4-0.6,3.3-0.8c1-0.1,2-0.2,2.8-0.2l1.7,3.5L151.2,57z"/>
	<path class="st0" d="M188.3,67c0.2,0.6,0.3,1.2,0.3,1.9c0,0.7-0.2,1.3-0.6,1.8l-3.7,1.5l-1.7-0.7c0.2-0.4,0.2-0.9,0.1-1.3
		c-0.1-0.5-0.3-1-0.5-1.4l-5.3-13.4c-0.1-0.4-0.3-0.5-0.5-0.4c0,0-0.1,0.1-0.3,0.2l-4.9,5.5l4.6,11.5c0.2,0.5,0.3,1.1,0.3,1.7
		c0,0.6-0.2,1.2-0.4,1.7l-0.1,0.2l-3.7,1.5l-1.7-0.7c0.1-0.4,0.2-0.7,0.1-1.1c-0.1-0.4-0.2-0.9-0.4-1.5l-5-12.5
		c-0.2-0.5-0.4-0.9-0.8-1.2c-0.3-0.3-0.7-0.5-1.3-0.6c-0.3-0.1-0.6,0-0.9,0c-0.3,0.1-0.6,0.2-0.8,0.3c-0.1,0-0.2,0.1-0.3,0.1
		c-0.1,0-0.2,0.1-0.2,0.1l-0.2,0.1l-1-4.5l2.3-1.2c0.3-0.1,0.5-0.3,0.8-0.4c0.2-0.1,0.5-0.2,0.7-0.3c1.3-0.5,2.4-0.6,3.5-0.3
		c0.9,0.3,1.7,0.9,2.4,1.8l5.2-5.5c0.3-0.3,0.5-0.5,0.8-0.7c0.3-0.2,0.6-0.3,0.9-0.5c0.6-0.2,1.2-0.4,1.7-0.4c0.6,0,1.1,0,1.5,0.1
		c0.6,0.2,1.2,0.6,1.8,1.1c0.6,0.5,1,1.3,1.4,2.1L188.3,67z"/>
	<path class="st0" d="M214.1,57.1c0.2,1,0.1,2-0.4,3c-0.5,1-1.2,1.9-2,2.7c-0.9,0.8-1.8,1.5-2.9,2.1c-1.1,0.6-2.1,1-3,1.2
		c-1.1,0.3-2.3,0.4-3.6,0.4c-1.3,0-2.4-0.2-3.5-0.6c-1.1-0.4-2.1-1-2.9-1.8c-0.9-0.8-1.4-1.9-1.8-3.3c-0.2-0.9-0.3-1.8-0.2-2.7
		c0.1-0.9,0.4-1.8,1-2.5c-0.5,0-1,0-1.6-0.2c-0.5-0.2-1-0.4-1.5-0.8c-0.5-0.4-0.9-0.8-1.3-1.4c-0.4-0.6-0.7-1.2-0.8-2
		c-0.2-1-0.2-2,0-2.9c0.2-1,0.7-1.8,1.2-2.6c0.6-0.8,1.3-1.4,2.2-2c0.9-0.6,1.8-1,2.8-1.2l2.2,2.5l0.3,1.3c-0.3,0.1-0.6,0.2-1,0.4
		c-0.3,0.2-0.6,0.4-0.8,0.7c-0.2,0.3-0.4,0.6-0.5,1c-0.1,0.4-0.1,0.8,0,1.4c0.2,0.9,0.6,1.5,1.2,2c0.6,0.5,1.3,0.8,1.9,1.1
		c0.8,0.3,1.6,0.4,2.5,0.5l0.4,1.5c-0.3,0.1-0.6,0.2-0.9,0.5c-0.3,0.2-0.5,0.5-0.8,0.9c-0.2,0.4-0.4,0.8-0.4,1.2
		c-0.1,0.4-0.1,0.9,0.1,1.4c0.3,1.2,0.9,2,1.9,2.3c0.9,0.3,1.9,0.4,3,0.1c0.6-0.2,1.2-0.4,1.8-0.7c0.6-0.3,1.1-0.6,1.5-1.1
		l-3.4-13.9c-0.1-0.5-0.2-0.9-0.4-1.3c-0.1-0.4-0.4-0.7-0.9-1.1l2.4-3.7c0.5,0.2,1,0.4,1.5,0.6c0.5,0.2,1,0.5,1.4,0.8
		c0.4,0.3,0.8,0.7,1.2,1.1c0.3,0.4,0.6,0.9,0.7,1.5L214.1,57.1z"/>
	<path class="st0" d="M234.5,57.7c0.1,0.6,0,1.3-0.2,1.9c-0.2,0.6-0.5,1.2-1,1.6l-4,0.5l-1.5-1.1c0.4-0.6,0.6-1.4,0.5-2.4L226.5,43
		c0-0.4-0.3-0.6-0.7-0.5l-5.3,0.6c-1.2,0.1-2,0.5-2.5,1l-3-2.3c0.2-0.3,0.3-0.5,0.5-0.8c0.1-0.2,0.3-0.5,0.4-0.7
		c0.2-0.2,0.3-0.5,0.5-0.7c0.4-0.5,0.8-0.9,1.3-1.2c0.5-0.3,1.1-0.5,1.6-0.5l8.1-0.9c1.5-0.2,2.7,0.2,3.6,1.1
		c0.9,0.9,1.5,2.1,1.7,3.7L234.5,57.7z"/>
	<path class="st0" d="M260.4,57.3c0,0.7-0.2,1.3-0.5,1.9c-0.3,0.6-0.8,1.1-1.2,1.4l-3.9-0.1l-1.4-1.3c0.2-0.2,0.4-0.5,0.6-0.9
		c0.1-0.4,0.2-0.8,0.2-1.4l0.1-5.3c-0.3-0.2-0.6-0.3-0.9-0.5c-0.3-0.1-0.7-0.2-1.2-0.3c-0.5-0.1-1.1-0.2-1.8-0.2
		c-0.5,0-1,0.1-1.6,0.2c-0.5,0.1-1,0.3-1.4,0.7c-0.4,0.3-0.8,0.7-1.1,1.2c-0.3,0.5-0.4,1.1-0.5,1.9c0,0.6,0.1,1.1,0.3,1.4
		c0.2,0.4,0.4,0.7,0.7,1c0.3,0.3,0.5,0.5,0.9,0.6c0.3,0.1,0.6,0.2,0.9,0.3l-1.3,2.6l-2.7,0c-0.6-0.2-1.2-0.4-1.7-0.7
		c-0.6-0.3-1-0.8-1.5-1.3c-0.4-0.5-0.8-1.2-1-1.9c-0.3-0.7-0.4-1.6-0.4-2.5c0-1.5,0.3-2.7,0.9-3.7c0.6-1,1.3-1.9,2.2-2.5
		c0.9-0.7,2-1.1,3.2-1.4c1.2-0.3,2.4-0.4,3.6-0.4c0.8,0,1.6,0.1,2.3,0.2c0.8,0.1,1.5,0.3,2.2,0.5l0.1-4.9c0-0.4-0.2-0.6-0.6-0.6
		l-9.6-0.2c-0.7,0-1.3,0.2-1.7,0.7l-2.7-2.7c0.2-0.3,0.4-0.6,0.8-0.9c0.3-0.4,0.7-0.7,1.1-1.1c0.4-0.4,0.9-0.7,1.4-0.9
		c0.5-0.2,1-0.4,1.6-0.4l11.5,0.2c1.4,0,2.6,0.5,3.4,1.5c0.8,1,1.2,2.3,1.2,3.9L260.4,57.3z"/>
	<path class="st0" d="M269.1,30.6c-0.2,0.2-0.6,0.5-1.2,0.9c-0.6,0.4-1.3,0.8-2.2,1.1c-0.9,0.4-1.9,0.7-3,0.9
		c-1.1,0.2-2.3,0.3-3.6,0.2l-4.7-0.3c-1.3-0.1-2.4-0.4-3.1-0.9c-0.7-0.5-1.2-1-1.6-1.6c-0.3-0.6-0.5-1.2-0.6-1.7
		c0-0.5-0.1-0.9,0-1.2l0-0.2l3.4-2.2c0.1,0.5,0.4,1,0.8,1.5c0.4,0.5,0.9,0.7,1.5,0.8l5.5,0.4c1.1,0.1,2.1,0,3-0.1
		c0.9-0.2,1.6-0.4,2.2-0.7c0.7-0.3,1.3-0.6,1.9-1.1L269.1,30.6z"/>
	<path class="st0" d="M288.4,57.5c-0.2,1-0.6,1.9-1.5,2.7c-0.8,0.7-1.8,1.3-2.9,1.7c-1.1,0.4-2.3,0.7-3.5,0.8
		c-1.2,0.1-2.3,0.1-3.3,0c-1.2-0.2-2.3-0.5-3.5-1c-1.2-0.5-2.2-1.1-3.1-1.9c-0.9-0.8-1.6-1.7-2-2.8c-0.5-1.1-0.6-2.3-0.4-3.7
		c0.1-0.9,0.4-1.8,0.9-2.6c0.5-0.8,1.1-1.5,1.8-2c-0.5-0.2-0.9-0.4-1.4-0.8c-0.4-0.4-0.8-0.8-1.1-1.3c-0.3-0.5-0.5-1.1-0.7-1.8
		c-0.1-0.7-0.1-1.4,0-2.2c0.1-1,0.5-2,1.1-2.8c0.6-0.8,1.3-1.4,2.1-1.9c0.8-0.5,1.8-0.9,2.8-1.1c1-0.2,2-0.2,3.1-0.1l1.1,3.2
		l-0.2,1.3c-0.3,0-0.7,0-1.1,0c-0.4,0-0.7,0.2-1,0.3c-0.3,0.2-0.6,0.4-0.9,0.7c-0.3,0.3-0.4,0.7-0.5,1.3c-0.1,0.9,0,1.7,0.4,2.3
		c0.4,0.7,0.8,1.2,1.4,1.7c0.6,0.5,1.3,1,2.2,1.4l-0.2,1.6c-0.3,0-0.7,0-1,0.1c-0.4,0.1-0.7,0.3-1,0.5c-0.3,0.3-0.6,0.6-0.9,1
		c-0.2,0.4-0.4,0.8-0.5,1.4c-0.2,1.2,0.1,2.2,0.9,2.9c0.8,0.7,1.7,1.1,2.7,1.2c0.6,0.1,1.3,0.1,1.9,0.1c0.7-0.1,1.3-0.2,1.8-0.4
		l2.1-14.2c0.1-0.5,0.1-1,0.1-1.4c0-0.4-0.1-0.8-0.4-1.3l3.6-2.6c0.4,0.4,0.8,0.8,1.2,1.1c0.4,0.4,0.7,0.8,1,1.3
		c0.3,0.5,0.5,1,0.7,1.5c0.2,0.5,0.2,1.1,0.1,1.7L288.4,57.5z"/>
	<path class="st0" d="M323.3,46.6l-0.3,0.9c-0.6,0.3-1.2,0.7-1.6,1.3c-0.5,0.6-0.9,1.5-1.3,2.8l-4.8,16c-0.1,0.5-0.2,0.9-0.3,1.4
		c0,0.4,0.1,0.9,0.3,1.4l-1.8,0.8l-4.1-1.2c-0.4-0.4-0.7-1-0.8-1.7c-0.1-0.7-0.1-1.4,0.1-2.1l4.2-14.2c-0.4-0.8-0.9-1.6-1.6-2.2
		c-0.7-0.6-1.5-1.1-2.4-1.4c-1.3-0.4-2.5-0.3-3.6,0.3c-1.1,0.6-1.9,1.6-2.3,3c-0.2,0.6-0.3,1.2-0.2,1.8c0,0.6,0.2,1.1,0.5,1.5
		c0.6,0,1.2,0,1.8,0c0.6,0,1.1,0.1,1.7,0.3c0.4,0.1,0.8,0.3,1.1,0.5l0.1,3l-0.6,0.8c-0.4-0.1-0.9-0.2-1.4-0.2c-0.5,0-1,0.1-1.5,0.2
		c-0.5,0.1-1,0.4-1.4,0.7c-0.4,0.3-0.8,0.8-1.1,1.3c-0.3,0.6-0.7,1.1-1,1.7c-0.4,0.6-0.8,1.1-1.2,1.6c-0.4,0.5-0.9,0.8-1.4,1.1
		c-0.5,0.2-1.1,0.3-1.7,0.1l-4-1.2l0.4-1.2c0.6-0.2,1-0.6,1.3-1.2c0.3-0.6,0.6-1.3,0.9-2.1c0.3-0.8,0.7-1.5,1.2-2.2
		c0.5-0.7,1.2-1.2,2.1-1.6c-0.6-0.5-1-1-1.3-1.6c-0.3-0.6-0.5-1.3-0.6-2c-0.1-0.7-0.1-1.4-0.1-2.1c0.1-0.7,0.2-1.4,0.4-2
		c0.4-1.2,0.9-2.3,1.8-3.2c0.8-0.9,1.7-1.5,2.8-2c1.1-0.5,2.2-0.8,3.5-0.8c1.3-0.1,2.5,0.1,3.8,0.4c1.2,0.4,2.4,0.9,3.5,1.5
		c1.1,0.7,2,1.5,2.7,2.6c0.4-0.5,0.9-0.9,1.3-1.2c0.5-0.3,0.9-0.5,1.3-0.7c0.4-0.2,0.8-0.3,1.3-0.3L323.3,46.6z"/>
	<path class="st0" d="M322.6,45.6c-1.2-1-2.5-1.9-3.9-2.7c-1.5-0.8-3-1.6-4.6-2.2c-1.6-0.6-3.2-1.1-4.8-1.5
		c-1.6-0.4-3.1-0.6-4.6-0.7l0.3-3.5c0.3-0.2,0.8-0.3,1.5-0.4c0.7-0.1,1.6-0.2,2.6-0.2c1,0,2.2,0.1,3.5,0.3c1.3,0.2,2.7,0.6,4.1,1.1
		c1.6,0.6,3,1.3,4.1,1.9c1.1,0.7,2.1,1.3,2.8,1.8c0.8,0.7,1.5,1.3,2,1.9l-1.4,3.6L322.6,45.6z"/>
	<path class="st0" d="M339.2,78.8c-0.3,0.6-0.7,1.1-1.3,1.5c-0.5,0.4-1.1,0.7-1.7,0.8l-3.5-1.6l-0.7-1.8c0.3-0.1,0.6-0.3,0.9-0.6
		c0.2-0.3,0.5-0.7,0.8-1.2l2.2-4.9c-0.2-0.3-0.4-0.5-0.7-0.8c-0.2-0.2-0.6-0.5-1-0.8c-0.4-0.3-0.9-0.6-1.6-0.9
		c-0.5-0.2-1-0.4-1.5-0.5c-0.5-0.1-1.1-0.1-1.6,0c-0.5,0.1-1,0.3-1.5,0.7c-0.5,0.3-0.9,0.9-1.2,1.6c-0.2,0.5-0.4,1-0.3,1.4
		c0,0.4,0.1,0.8,0.2,1.2c0.1,0.3,0.3,0.6,0.5,0.9c0.2,0.3,0.5,0.5,0.7,0.6l-2.2,1.8l-2.4-1.1c-0.5-0.4-0.9-0.8-1.3-1.4
		c-0.4-0.5-0.6-1.1-0.8-1.8c-0.2-0.7-0.2-1.4-0.2-2.2c0.1-0.8,0.3-1.6,0.7-2.4c0.6-1.3,1.4-2.4,2.3-3.1c0.9-0.7,2-1.2,3.1-1.4
		c1.1-0.2,2.2-0.2,3.4,0c1.2,0.2,2.4,0.6,3.5,1.1c0.7,0.3,1.4,0.7,2.1,1.2c0.7,0.4,1.3,0.9,1.8,1.4l2.1-4.5c0.2-0.4,0.1-0.6-0.3-0.8
		l-8.7-4c-0.7-0.3-1.3-0.3-1.8-0.1l-1.4-3.5c0.3-0.2,0.6-0.4,1.1-0.6c0.4-0.2,0.9-0.4,1.4-0.6c0.5-0.2,1.1-0.2,1.6-0.3
		c0.6,0,1.1,0.1,1.6,0.3l10.5,4.8c1.3,0.6,2.1,1.5,2.5,2.8c0.3,1.2,0.2,2.6-0.5,4.1L339.2,78.8z"/>
	<path class="st0" d="M348,87.8c-0.6-0.4-1.1-1-1.4-1.7c-0.3-0.7-0.5-1.5-0.6-2.3c0-0.9,0.1-1.8,0.3-2.7c0.3-1,0.7-1.9,1.3-2.9
		c1.1-1.7,2.1-3,3.2-4.1c1.1-1.1,2.2-2.1,3.3-3c0.2-0.1,0.3-0.3,0.4-0.5c0.3-0.4,0.3-0.9,0.1-1.3c-0.2-0.4-0.4-0.8-0.6-1.1
		c-0.2-0.3-0.5-0.6-0.8-0.9c-0.3-0.3-0.6-0.4-0.8-0.6l-0.3-0.2l3.1-3.5c0.7,0.3,1.3,0.6,1.7,0.8c0.4,0.2,0.7,0.4,1,0.5
		c0.2,0.1,0.4,0.2,0.6,0.3c0.1,0.1,0.2,0.1,0.3,0.2c1.3,0.9,2.1,1.8,2.4,2.8c0.1,0.3,0.2,0.6,0.2,0.9c0.1,0.3,0.1,0.7,0,1.2
		c0,0.4-0.1,0.9-0.3,1.5c-0.2,0.6-0.4,1.1-0.8,1.7c-0.5,0.8-1.1,1.5-2,2.3c-0.8,0.8-1.7,1.6-2.6,2.6c-0.9,1-1.6,2-2.3,2.9
		c-0.5,0.8-0.9,1.6-1,2.3c-0.1,0.7,0.1,1.2,0.6,1.6l4.8,3.1c0.3,0.2,0.5,0.2,0.6,0.2c0.1,0,0.3-0.2,0.5-0.4l12.6-19.5
		c0.3-0.5,0.7-0.9,1.2-1.2c0.5-0.3,1-0.6,1.6-0.7l3.8,2.4l0.3,1.5c-0.4,0.1-0.8,0.3-1.1,0.6c-0.3,0.3-0.6,0.7-0.9,1.2l-11.7,18.1
		c-0.5,0.8-1.2,1.5-2,2c-0.8,0.5-1.6,0.9-2.5,1c-0.9,0.2-1.7,0.3-2.6,0.2c-0.9-0.1-1.6-0.3-2.2-0.7L348,87.8z"/>
	<path class="st0" d="M378.2,105.9c-0.4,0.5-0.9,0.9-1.5,1.1c-0.6,0.3-1.2,0.4-1.9,0.4l-3.1-2.6l-0.2-1.9c0.7-0.1,1.4-0.6,2-1.3
		l9.7-11.7c0.2-0.3,0.2-0.6-0.1-0.9l-4.1-3.4c-0.9-0.7-1.7-1.1-2.5-1.1l-0.4-3.8c0.3-0.1,0.6-0.1,0.9-0.2c0.2-0.1,0.5-0.1,0.8-0.2
		c0.3,0,0.6-0.1,0.9-0.1c0.6-0.1,1.2,0,1.8,0.1c0.6,0.2,1.1,0.4,1.5,0.8l6.2,5.2c1.1,0.9,1.7,2,1.7,3.3c0,1.3-0.5,2.6-1.6,3.8
		L378.2,105.9z"/>
	<path class="st0" d="M409.4,107c1,1.1,1.4,2.2,1.3,3.5c-0.2,1.3-0.8,2.5-2,3.6L397,125.1c-0.5,0.4-1,0.8-1.7,1
		c-0.7,0.2-1.3,0.2-1.9,0.1l-2.7-2.9l0-1.9c0.4,0,0.8-0.1,1.2-0.4c0.4-0.2,0.8-0.5,1.2-0.9l11.2-10.5c0.1-0.1,0.1-0.2,0-0.3
		l-4.8-5.1c0,0.1-0.1,0.2-0.2,0.3c-0.1,0.1-0.2,0.2-0.3,0.3l-11.2,10.5c-0.5,0.5-1.1,0.8-1.8,1c-0.7,0.2-1.3,0.2-1.8,0.1l-2.7-2.9
		l0-1.9c0.8,0,1.5-0.5,2.4-1.3l10-9.4c0.5-0.5,0.9-1,1.2-1.7c0.3-0.7,0.4-1.3,0.4-2c0.2,0,0.5-0.1,0.9-0.1c0.5-0.1,1-0.1,1.5,0
		c0.6,0,1.1,0.2,1.7,0.3c0.6,0.2,1.1,0.5,1.5,1L409.4,107z"/>
	<path class="st0" d="M424.4,129.9c-0.3,0-0.7,0-1.2-0.1c-0.5-0.1-0.9-0.2-1.4-0.3c-0.5-0.2-1-0.4-1.4-0.6c-0.5-0.3-0.8-0.6-1.2-1
		l-1.3-1.8c-0.2,0.8-0.4,1.6-0.7,2.5c-0.3,0.9-0.6,1.8-1,2.7c-0.4,0.9-0.9,1.7-1.4,2.5c-0.5,0.8-1.1,1.5-1.8,2.1
		c-0.2,0.2-0.4,0.4-0.6,0.6c-0.2,0.2-0.4,0.3-0.6,0.5c-1.1,0.8-2.2,1.4-3.3,1.7c-1.1,0.3-2.1,0.4-3,0.3c-0.9-0.1-1.8-0.5-2.6-1
		c-0.8-0.5-1.5-1.2-2.1-2c-0.5-0.6-0.8-1.3-1-1.9c-0.2-0.7-0.3-1.2-0.4-1.8c-0.1-0.6-0.1-1.2-0.1-1.9l4.1-0.9l1.1,1.5
		c-0.2,0.4-0.1,0.8,0.2,1.2c0.4,0.6,1,0.8,1.6,0.6c0.6-0.2,1.2-0.4,1.8-0.9c0.7-0.5,1.4-1.3,2.3-2.2c0.8-1,1.4-2.2,1.9-3.6
		c0.3-1,0.6-2,0.7-3c0.2-1,0.3-1.8,0.3-2.5c0-0.9,0-1.6,0-2.4l0.9-0.6l4.3,0.1l4.8,6.5c0.3,0.4,0.6,0.7,0.9,1
		c0.3,0.3,0.7,0.5,1.2,0.6L424.4,129.9z"/>
	<path class="st0" d="M47.7,237.8c-0.6,0.3-1.2,0.5-1.8,0.5c-2.7,0.2-5-1.8-5.2-4.5c-0.1-1.3,0.3-2.6,1.2-3.5c0.8-1,2-1.6,3.3-1.7
		c0.1,0,0.2,0,0.4,0c2.5,0,4.7,2,4.8,4.5c0.1,1.3-0.3,2.6-1.2,3.5c-0.3,0.4-0.8,0.8-1.2,1C47.9,237.8,47.7,237.8,47.7,237.8"/>
	<path class="st0" d="M41.7,222.3c0.7-3,2.9-4.6,5.8-8.3c0.8,2.1,1.5,3.3,2,4.7c0.6,1.6,1.3,2.8,1.4,4.4c0.2,1.8-0.6,3.2-1.4,3.9
		c-1.3-0.7-2.7-1.2-4.6-1.1c-0.6,0-1.8,0.3-2.4,0.6C41.8,225.6,41.3,224,41.7,222.3"/>
	<path class="st0" d="M41.8,240.2c0.6,0.3,1.8,0.8,2.4,0.9c1.8,0.3,3.3-0.1,4.6-0.7c0.8,0.8,1.4,2.3,1.1,4c-0.3,1.6-1,2.7-1.8,4.3
		c-0.6,1.4-1.4,2.5-2.4,4.5c-2.6-3.9-4.6-5.7-5.1-8.7C40.4,242.7,41.1,241,41.8,240.2"/>
	<path class="st0" d="M34.8,236.6c-2.7-0.7-5.2-3.1-6.6-4.5c1.5-1.2,4.4-3.1,7.2-3.4c2-0.2,3.1,0.2,3.8,0.6c-0.9,1.5-1.3,3.3-1.2,5
		c0.1,0.8,0.3,1.7,0.6,2.4C37.8,236.9,36.6,237.1,34.8,236.6"/>
	<path class="st0" d="M55.7,238.1c-1.8,0.2-3-0.2-3.7-0.5c0.8-1.5,1.3-3.1,1.2-4.7c-0.1-0.9-0.4-1.7-0.7-2.5c0.7-0.3,2-0.5,3.8,0
		c2.6,0.7,5.1,3,6.4,4.4C61.3,235.9,58.5,237.8,55.7,238.1"/>
	<path class="st0" d="M452.1,237.7c-0.5-0.3-0.9-0.6-1.3-1c-0.8-1-1.3-2.2-1.2-3.5c0.2-2.5,2.3-4.5,4.8-4.5c0.1,0,0.2,0,0.4,0
		c1.3,0.1,2.5,0.7,3.3,1.7c0.8,1,1.3,2.2,1.2,3.5c-0.2,2.6-2.5,4.7-5.2,4.5c-0.7-0.1-1.3-0.2-1.8-0.5
		C452.3,237.8,452.2,237.8,452.1,237.7"/>
	<path class="st0" d="M457.5,226.5c-0.6-0.3-1.8-0.5-2.4-0.6c-1.8-0.1-3.3,0.4-4.6,1.1c-0.8-0.7-1.6-2.1-1.4-3.9
		c0.1-1.6,0.8-2.8,1.4-4.4c0.5-1.4,1.3-2.6,2-4.7c2.9,3.7,5,5.3,5.8,8.3C458.8,224,458.2,225.6,457.5,226.5"/>
	<path class="st0" d="M459.3,244.4c-0.5,3-2.5,4.8-5.1,8.7c-1-2-1.8-3.2-2.4-4.5c-0.8-1.6-1.5-2.6-1.8-4.3c-0.3-1.8,0.4-3.2,1.1-4
		c1.3,0.6,2.8,1,4.6,0.7c0.6-0.1,1.8-0.6,2.4-0.9C459,241,459.6,242.7,459.3,244.4"/>
	<path class="st0" d="M461.5,236.7c0.3-0.7,0.5-1.6,0.5-2.4c0.1-1.8-0.3-3.5-1.2-5c0.7-0.4,1.8-0.8,3.8-0.6c2.8,0.3,5.6,2.2,7.2,3.4
		c-1.3,1.4-3.9,3.8-6.6,4.5C463.5,237.1,462.3,236.9,461.5,236.7"/>
	<path class="st0" d="M437.3,234.7c1.3-1.4,3.8-3.7,6.4-4.4c1.9-0.5,3.1-0.3,3.8,0c-0.3,0.8-0.6,1.6-0.7,2.5
		c-0.1,1.7,0.3,3.3,1.2,4.7c-0.7,0.4-1.9,0.7-3.7,0.5C441.6,237.8,438.8,235.9,437.3,234.7"/>
	<path class="st0" d="M226.6,249.8c0.6-0.3-1.1-1.3-1.9-1.4c0,0-1.3,0.3-1.4,1.3C223.2,250.7,226,250.2,226.6,249.8"/>
	<path class="st0" d="M357.7,192.3c0.8,0.5,1.6,0.7,2-0.5c0.3-1.2-0.3-2.4-0.3-2.4c-0.8-0.7-1.9-0.2-2.3,0.2
		C356.5,190.1,356.8,191.8,357.7,192.3"/>
	<path class="st0" d="M310.9,343.7c-1.1,0.8-1.9,1.1-3.7,1.9c0,0-1.5,0.5-3.3,0.9c-1.4,0.3-1.5,1.3,0.3,2c1.2,0.5,4.5-0.2,6.1-1.3
		C312.4,345.7,312,343,310.9,343.7"/>
	<path class="st0" d="M364,199.4c1.6,0.9,2.1-1.2,2.9-2.1c0.8-0.9-0.2-2-0.7-3.1c-0.4-1.2-1.5-0.8-2.3-1.2c-0.8-0.3-0.3-1.2-1.2-0.5
		c-0.8,0.7-1.6,2.4-1.6,2.4l-0.2,1.3C360.7,197.5,362.4,198.4,364,199.4 M363.3,194.4c0.4-0.4,1.1-0.1,1.1,0.7
		c0.1,0.8,0.5,1.3-0.6,1C363.2,196,362.2,195.6,363.3,194.4"/>
	<path class="st0" d="M247.3,173c1.1-0.1,2.1-0.4,3.8-0.5c1.7-0.1,2.8-0.1,4.2,0.4c1.4,0.5,1.2-0.1,1.5-0.6c0.2-0.5,0-1.3-0.6-1.6
		c-0.6-0.4-1.3-0.6-2.3-0.6c-1.4,0-4,0.4-5,0.2c-1-0.1-2.1,0.1-2.8,0.8C244.9,172.3,246.2,173.2,247.3,173"/>
	<path class="st0" d="M249.8,211c-1.3,0.8-0.6,1.3,1,1.3c1,0,3.5-0.3,4.4-0.2c1.6,0.1,1.8-1,1.8-1s-0.8-0.8-3.1-0.9
		C250.7,210,249.8,211,249.8,211"/>
	<path class="st0" d="M253.6,240c-1.1,0.8-0.4,1.8,0.4,1.6c0.8-0.1,1.4-0.4,1.6-0.9C255.9,240.3,254.2,239.7,253.6,240"/>
	<path class="st0" d="M253.9,229.1c-2,0-2.4,0.8-2.4,0.8s0,1.2,2.1,1.3c2,0.1,2.4-1.1,2.4-1.1S256,229.1,253.9,229.1"/>
	<path class="st0" d="M266,177.9c1,0.1,1.8,0.4,1.4-0.1c-0.4-0.5-2.1-2.7-2.1-3.3c0-0.6,0.5-0.7,1.3-0.7c1,0,2.7-0.8,1.5-1.3
		c-1.1-0.5-3.2-0.6-4.1-0.5c-0.8,0.1-2.1,2-0.8,3.4C264.4,176.7,265.3,177.8,266,177.9"/>
	<path class="st0" d="M226.1,210.3c0-0.4,0.7-0.9,0.3-1.1c-0.4-0.2-1.1,0.2-1.1,0.2c-0.6,0.4-0.4,1.3-0.3,1.4
		C225.5,211.3,226.1,210.6,226.1,210.3"/>
	<path class="st0" d="M252.1,201.7c1.3-0.1,3.5,0,3.4-0.5c-0.1-0.6-1.1-1.4-3.3-1.2c-2.4,0.1-3.5,0.7-3.8,1.2
		C248.1,202,250.8,201.8,252.1,201.7"/>
	<path class="st0" d="M253.9,178.2c1.1-0.2,2,0.1,3,0.5c1.6,0.6,2.1,0.2,1.9-0.1c-0.2-0.4-1.3-2.1-2.9-2.6c-1.6-0.5-3.8,0-6.4,0
		c-2.6,0-3.3,1.6-4.3,2.6c0,0-0.1,1,1.4,0.9c1.5-0.1,1.5-1.1,2.3-1.1C249.6,178.3,252.7,178.4,253.9,178.2"/>
	<path class="st0" d="M250.5,223.6c0,0-0.1,0.9,1,1.1c0.9,0.2,3.1,0,4-0.1c0.9-0.1,1.1-0.9,1.1-0.9s-0.9-1-3-1.1
		C251.7,222.5,250.5,223.6,250.5,223.6"/>
	<path class="st0" d="M253.1,206.6c1.3,0.1,3,0.5,3.6,0c0.6-0.5-1.8-1.8-4.1-1.6c-2.3,0.1-3.3,1-3.7,1.3c0,0-0.4,0.5,0.4,0.8
		C250.1,207.2,251.8,206.4,253.1,206.6"/>
	<path class="st0" d="M233.8,172.5c-0.9,0.4-0.5,1,0.6,1.7c1.1,0.6,2-0.2,2.4,0.8c0.4,1,0.5,2.6,1.4,3.1c0.9,0.5,0.7,0.3,1.2-1.5
		c0.3-1.1-0.3-3.1-1.1-3.8C237.1,171.6,234.2,172.3,233.8,172.5"/>
	<path class="st0" d="M253.1,245.1c-0.8,0.8-0.7,1.5,0.5,1.5c0.8,0,1.3-0.2,1.6-0.7C255.6,245.3,253.9,244.3,253.1,245.1"/>
	<path class="st0" d="M255.5,235.8c0,0-0.6-1.1-1.5-1c-0.9,0.1-1.4,0.3-1.5,0.6c-0.2,0.8,0.1,1.4,1.5,1.5
		C255.4,237,255.5,235.8,255.5,235.8"/>
	<path class="st0" d="M251.8,250.4c-0.2,0.5,0.1,1.1,0.9,1.1c0.7,0,1.6-0.2,1.5-1C254.1,249.7,252.4,249.2,251.8,250.4"/>
	<path class="st0" d="M253,217.9c2.8-0.1,3.6-0.1,3-1.1c-0.6-1.1-4.5-1.2-5.7,0C248.8,218.3,251.3,218,253,217.9"/>
	<path class="st0" d="M405.4,273.4c2.9-7.4,0.9-14.8-5.7-20.5c-3.6-3.1-7.5-3.9-10.6-4.6c-2.2-0.4-4.1-0.8-5.4-1.9
		c-1.2-1-1.5-2-1.4-2.9c0.1-0.9,0.5-1.6,1.1-2.1c2.8,2.2,5,2.1,6.4,1.6c1.8-0.6,3.1-2.4,3.5-4.6c0.4-2.9-0.7-5.8-3.1-7.6
		c-6.3-4.8-15.7-3.6-21.9,2.8c-5.7,5.8-4.7,12-3.8,14.9c-3.9,1.4-8.6,5.5-8.2,12.8c0.3,5.3,2.9,9.9,7.3,12.5
		c3.6,2.2,7.8,2.6,11.1,1.1c2.5-1.1,4.2-3,5.1-5.2c3.1,1.7,4.5,5.2,4.5,8.2c0,3.1-1.4,5.6-3.7,6.7c-2-2.8-4.5-4.7-7.5-5.4
		c-5.3-1.2-9.5,0.4-11.5,1.3l-0.2-0.4c-2.6-4.4-10.9-10.6-19.3-11.7c-7.5-1-17.5,0.3-25.7,2.4c-8.2,2-13.9,4.8-17.2,6
		c-3.3,1.1-8.6,1.9-8.6,1.9c-1.1-2.8-4.2-5.2-4.2-5.2c0.4-1,0.4-6.5,0.1-8.4c-0.3-1.9,0.5-4.1,1-7c0.5-2.9,0.7-7.8,0.7-7.8
		c3.7-2.8,5.2-7.1,5.2-7.1l1.4,0.3c0.1,5.8,5.9,5.8,5.9,5.8c1.7,5.1,6.8,4,6.8,4c4.3,4.8,16.6,10.8,23.1,10.5
		c2.5-0.1,5.8-1.3,12.3-8.7c7.5-8.6,10.4-24.9,10.4-24.9c2.9-1.5,2.4-6.8,2.4-6.8c2.3-0.7,1.9-4.7,1.9-4.7c1.7-1.8,4.6-2,7.5-2.4
		c3.6-0.5,7.9,1.3,10.8,0.9c2.9-0.4,6.6-3.2,7.7-4.8c1.2-1.7,0.8-3.4,1.5-4.8c0.8-1.4,1.6-1.7,1.9-2.7c0.4-1,0.4-1.4,0.4-1.4
		s1.8-2.4,2.3-3.9c0.7-2,1.4-2.6,0.1-4.7c-1.1-1.6-4-1.6-4-1.6c0.5-1.5-0.4-6.2-1.8-7.7c-1.4-1.5-2.3-2.8-8.1-3.1
		c-4.1-0.2-8.7-0.1-11.6,0.1c-2.9,0.1-4.8,1.1-4.8,1.1h-2.3c-2.5,0-4.2,2.2-4.5,4.4c-0.5,3.1,0.5,5.2,0.1,6.7
		c-0.4,1.5-0.8,2.4-0.8,2.4s-1.8,0.7-3.6,1.9c-4.5,3.1-6.2,5.7-6.2,5.7c-0.8-3.4-2.6-4.4-2.6-4.4c0.1-1-1-3.1-1-3.1
		c1.2-1,3-6.8,2.8-10.2c-0.3-3.4-3.8-14.9-6.1-19.4c-2.3-4.6-5.5-4.6-5.5-4.6c0.5-1.7-0.2-4.4-0.2-4.4c2.6-1.2,2.1-7,2.1-7
		c2.6-2.3,2.3-8.6,2.3-8.6c2.7-6.6-2.2-9.1-2.2-9.1c0.2-3.7-0.9-4.9-0.9-4.9s-0.5-3-1-4.4c-0.5-1.4-1.7-4-5-4.2
		c-3.3-0.2-4.3,1.6-3.5,3.2c0.9,1.7,1.8,4.2,1.8,4.2c-3.5-0.1-4.9,3-4.9,3c-6.8,0.5-5.7,8-5.7,8c-4.2,2.5-1.3,9.5-1.3,9.5
		c-1.4,3.9,1.1,6.6,1.1,6.6c-0.6,5.4,1.9,7.1,1.9,7.1l-0.6,1.7c-4.1-0.8-5,2.9-3.6,5.7c1.4,2.8,3.4,14.1,5.2,21.2
		c1.8,7.1,3.9,10.3,3.9,10.3c-1.8,3,0.1,6.7,0.1,6.7c-1.5,2.4,0,5,0,5c-0.9,1.3-1.1,3-1.1,3c-2-2.1-5-1.7-5-1.7
		c-1.3-1.5-8.6-8.7-8.6-8.7l-0.8-0.9c0,0,6.7-12.8,2.6-29.2c-3.4-14-7.1-24.8-52.9-87c-1.1-1.5-2.2-2.6-3.3-2.7h-1
		c-1.1,0.1-2.1,1.2-3.1,2.7c-43.1,62.2-46.6,73-49.8,87c-3.8,16.5,1,25,1,25c-9.1,4.2-14.3,8-14.3,8c-4.6-0.5-6.7,3-6.9,3.4
		c-1.7-0.3-3.7,1.2-3.7,1.2l-0.7-2.4c1.5-2.2,0.2-5.3,0.2-5.3c0.4-1,0-3.3,0-3.3c0.4-0.5,1.1-1.5,1.1-1.5s1.4,2.3,3.1,3.9
		c1.2,1,2.6,0.9,3.7,0.2c1.5-1,2.8-3.8,2.8-3.8s1.8-1.2,2.8-3.5c1-2.3-0.3-5.7-0.3-5.7s0.9-0.9,1.1-2.7c0.2-1.8-0.9-5.7-0.9-5.7
		c1.4-1.6,0.5-4.6,0.5-4.6s1.4-1.9,1.9-3.7c0.5-1.8,0-5.2-1.6-6.6c-1.6-1.4-3.2-0.1-3.2-0.1l-0.1-4.8c0,0,1.4-1.2,1.9-2.5
		c0.7-1.8,0.3-3.2,0.3-3.2c1.2-0.6,3-3.3,2.6-4.4c-0.4-1.1-0.9-2.2-0.3-2.8c1-1,1.9,0,2.4,0.1c0.5,0.1,2.9-1,2.9-8.3
		c0-7.3-4.9-11.7-6.6-13.1c-1.7-1.4-2.2-0.6-1.9,0.7c0.3,1.3,1.1,1.6,1.6,6.1c0.5,4.5-2,6.2-2,6.2c-0.5-5.4-2.1-12.5-2.1-12.5
		s-0.3-2.1-0.7-3.5c-0.5-2.3-1.7-3-2.2-3c-0.4,0-1.1,0.4-2.1,2.2c-0.6,1.2-1,4.3-1,4.3c-1,3.2-2.5,11.5-2.5,11.5
		c-2.6-2.1-1.5-8.6-0.9-10.3c0.6-1.6,0.1-2.5-0.8-2c-1,0.5-3.2,1.7-5.3,5.4c-3.6,6.2-1.6,12.9-0.4,14.5c1.3,1.9,2.2,0.3,2.9,1.5
		c0.5,0.8,0,0.9-0.1,2.3c-0.1,1.4,0.9,3.6,1.3,4.2c0.4,0.6-3.3,5.6-3.5,7.6c-0.2,2-0.3,4.2-0.8,5.4c-0.8,2.1-4,7.6-7.4,14.4
		c-3.4,6.8-4.4,11.2-4.4,11.2c-3.3,0.6-2.6,6.4-2.6,6.4c-2.5,3-0.8,6.9-0.8,6.9c-4.3,16.5-0.6,30.4-0.6,30.4
		c-6.8,17.4-6.2,32.5-6.2,32.5c-3.1,3.7-1.7,8.1-1.7,8.1c-1.3,4.6,2.7,7,2.7,7c0.6,2.7,3.3,5.5,7,7c3.7,1.5,10.1,0.1,14.1-1.1
		c3.9-1.3,10.6-3.2,14.6-5.6c3.9-2.4,4.1-4.6,5.5-5.6c1.4-1,3.8-3.6,3.9-5.3c0.1-2.4-2-5-2-5s2.5-7.8,0.5-12.3
		c-2-4.4-4.7-4.5-5.6-3.7c-0.9,0.9-0.3,1.8-0.8,4.1c-0.5,2.3-3,4.3-3,4.3c-2.2-2.4-7.7-0.3-7.7-0.3c4.3-8.4,5.1-13.9,5.1-13.9
		c4.2-1,9.6-4.5,9.6-4.5c3.1,0.7,5.9-2.2,5.9-2.2c1.8,0.6,4.8-2.2,4.8-2.2s0.6,6.9,4.6,14.5c2.7,4.9,4.3,7.1,4.7,9.1
		c0.4,2-1.2,4.5-1.2,4.5s-3.3,0.3-5.2,4c-1.8,3.4-0.4,6.3-0.4,6.3c-0.8,0.8-1.9,2-2.3,5.2c-0.4,3.2,2.3,5,2.3,5
		c-1,1.1-0.8,2.4-0.8,2.4c-7-0.1-14.2,4.6-14.2,4.6s-1.7-2-5-2.1c-5-0.3-7.6,2.7-7.6,2.7s-4.2-2-10.8-0.6c-7.1,1.5-11,7.7-11,7.7
		s-2.1-2-2-3.5c0.2-2.3,0.6-4-1.6-6.5c-2.2-2.6-6.2-2.1-8.6-2.6c-2.4-0.5-2.5-3.4-3.4-5.3c-0.9-1.9-2.9-2.3-2.9-2.3
		c0.1,1.7-0.4,2.9-1.9,5.8c-0.1,0-0.2,0-0.3,0c-2.4,0.1-4.3-0.6-5.7-2.1c-1.6-1.7-2.4-4.5-2.1-7.3c0.4-3.5,2-5.4,2.9-6.2
		c1.4,1.4,3.8,2.5,7.2,2.3c2.5-0.1,4.9-1.4,6.9-3.7c3.2-3.8,5-10.1,4.4-15.7c-0.7-6.4-4.7-9.9-7.2-11c0.2-2.6-0.2-7.3-1.9-11.2
		c-1.8-4.1-5.4-6.2-8.1-7.8c-1.3-0.8-2.5-1.7-3-2.2c-1.2-1.4-1.1-2.6-1-3.4c1.2,0.9,2.7,1.2,4.4,0.8c2.5-0.6,5.3-3,5.2-6.9
		c-0.1-2.6-1.8-5.2-4.5-6.7c-2.2-1.2-6.8-2.6-13.2,1.2c-7.8,4.7-7.6,13.4-7.3,16.2c-6.7,5.1-8.7,16-4.2,23.4
		c0.8,1.3,1.8,2.4,2.8,3.2c-1.4,1-3.8,3-6.3,6.3c-4.6,6-6.3,15.7-5.6,21.8c0.6,5.1,3.5,8.9,4.8,10.4c-1.2,3.5-2,8.8,1.3,15.7
		c3,6.5,10.2,8.4,11.3,8.5c-3.4,15.8,6.3,29.1,17.9,34.8c11.8,5.7,21.9,0.3,21.9,0.3l1.1,1.3c0,0-6.4,10.6,2.1,22.6
		c5.6,8,12.9,8.5,12.9,8.5s1.6,6.4,10.8,10.2c8.2,3.4,14.3-0.8,14.3-0.8s3.3,6.3,9.4,10.2c9.4,6,17.3,5.1,17.3,5.1s1.2,2.1,3.3,2.1
		c2.2,0,3.8-1.1,3.8-1.1c3,0,6.1-2.1,6.1-2.1s2.9,1,9.4-1.2c9.4-3.3,11.9-11.7,11.9-11.7s4.6,9.4,17.5,12.6
		c11.8,2.9,18.8-3.2,18.8-3.2s8.7,3.9,19.5-0.4c10.8-4.3,12.8-13.5,12.8-13.5s3.4,1.1,8.5,0.5c5.5-0.6,16.4-3.1,22-15.4
		c5.5-12,0.1-20.6,0.1-20.6s8.7,2.9,21.3-2.3c13.6-5.6,13-17,13-17c12.5-3.5,14.9-22.4,8.8-30.7c5.2-1.1,12.2-5.9,13.9-13.9
		C410.7,280.8,407.1,275.2,405.4,273.4 M381.7,287.2c3.3-1.6,5.3-5.1,5.3-9.3c0-4.2-2.1-9.1-6.8-11.2c0-0.2,0-0.4,0-0.7
		c-0.1-0.9-0.2-1.7-0.5-2.5c5.6,0.4,8.6,3.7,10.1,6.6c3.1,5.7,2.4,13.1-0.1,16.6c-2.2,3.3-5.3,4.2-7.6,4.5
		C382.2,289.8,382.1,288.5,381.7,287.2 M366.8,316.3c-2-5.6-8.8-6.3-8.8-6.3c2.5-2.1,5.2-6.5,5.2-6.5c7.2,0,11.1,4.1,11.6,8.9
		c0.6,5.9-3,8.8-4.5,9.5c-1.5,0.7-1.6,1-2,2.9c-0.3,1.6-1.4,4.9-5.5,5.9c-3.7,1-6.9-0.8-6.6-3.2c0.2-1.5,1.4-1,1.4-1s0.8,1.2,3.9,1
		C365.4,327.2,369,322.4,366.8,316.3 M355.5,308c-4.1,3.7-9.5,6.8-9.5,6.8c-1.2-1.4-1.7-3.4-1.7-3.4s5.6-4,10.1-7.8
		c6.3-5.4,7.9-9.6,7.9-9.6C362.1,300.5,359.4,304.5,355.5,308 M358.6,281c1.5,1.8,3.6,4.2,2.9,8.8c-0.4,3-4.1,7.7-7.6,10.6
		c-3.4,2.9-11.1,8.8-11.1,8.8c-0.8-1.2-3.4-4.5-3.4-4.5c4-3.2,9.2-7.5,13.5-12.1c4.5-4.8,4.5-8.4,4.7-10.7
		C357.7,280.5,357,279.2,358.6,281 M326.8,347.1c0.6-1.2,1-3.9,1-3.9c3.1,0.4,4-0.2,4-0.2c0.8,0.5,0.4,4.2-1.4,4.7
		C328.6,348.3,326.8,347.1,326.8,347.1 M328.7,351.6c-0.3,1.5-1.3,2.8-3.1,2.3c-1.9-0.5-2.4-2.1-2.4-2.1l2.4-2.3l3,1.1
		C328.5,350.7,328.8,350.8,328.7,351.6 M331.4,340.2c-1.6,0.8-4.6-0.1-5.8,0.6c-1.3,0.8,0.1,1.5-1.2,5.4c-1.2,3.6-11.6,9-15.6,9.1
		c-4.1,0.1-12-5.4-14.9-7c-2.9-1.5-9.6-1.5-14.5-3.7c-6-2.7-5.2-6.3-4.5-8.3c1.3-3.9,5.4-7,6.8-7c1,0,1.5,1.8,2.2,1.9
		c1.5,0.3,2.9-1.1,4.4-0.5c1.5,0.6,4.4,1,7.5,1.6c3,0.6,11.8,0.8,15.7,0.9c3.9,0.1,6.6,0.1,9.5,0.5c2.9,0.4,7,0.8,9.1,0.2
		c2.2-0.5,3.4-0.8,3.8,0.8C334.3,336.5,333.1,339.4,331.4,340.2 M320.5,358.3c-1.7,0.1-3.3-1.9-3-2.6l3.3-1.8c0,0,1.2,1.1,2.1,2
		C323.3,356.3,322.8,358.2,320.5,358.3 M335.5,360.5c-0.7-1.1-1.3-0.6-1.4-1.2c-0.1-0.7,1.4-1.1,2.8-0.3c1.6,0.9,2.7,2.8,2.4,5.6
		c-0.4,4.7-4.5,10.7-13.1,10.5c-6.1-0.2-9.8-3.1-9.8-3.1l0.3-1.7c0,0,5.7,3.5,12.1,2.4C335,371.5,338.3,364.7,335.5,360.5
		 M253.9,371.7c0,0-4-2.5-4.4-5.8c-0.3-2.9,1.7-3.4,1.7-3.4l2.8,0.5c0,0,0.7,1.4,0.2,3.2C253.6,368.4,253.4,370.4,253.9,371.7
		 M246,358.5c0.1-1.8-0.6-4.1-0.6-4.1c6.6,2.9,11.9,2.6,11.9,2.6l0.8,3.9C251.8,360.9,246,358.5,246,358.5 M183.1,369.8
		c1.2,1.2,3.2,1.3,2-1.2c-1-2.1,1.5-2.7,1.5-2.7c5.8,1,9.1,4.2,9.1,4.2c-0.3,1.9-1.5,8-9.2,7.9c-7.8-0.2-10.5-8-10.5-8
		s-3.6,0.2-5.8-2.2c-3.3-3.5-3.6-7.9-3.6-7.9c7.2,3,16.7,4.9,16.7,4.9C181.6,366.2,182.3,369,183.1,369.8 M218.5,266.3
		c-3.5-4-3.4-12.1-0.5-15.8c2.9-3.7,7.7-4.3,10.4-3.3c2.4,0.9,4.2,3.5,4,4.3c-0.2,0.8-1.2,1.2-2.7,1.5c-1.5,0.2-2.4,0.9-3.4,0.7
		c-1-0.1-2.4-0.7-3.3-0.7c-0.9,0-1.1,1.8-0.6,2.2c0.5,0.4,0.4,1.6,0.5,2c0.1,0.4,0.8,0.9,0.9,1.4c0.1,0.5,0.5,1.6-1.4,1.6
		c-1,0-0.7,2.1,1.5,1.8c2.3-0.4,3.1-0.6,4,0.4c0.8,0.9-0.4,1.5-1.2,1.8c-0.9,0.2-2,0.8-2,0.8s-0.2,1.1,2.3,1c1.3-0.1,3-0.9,3-0.9
		s1.1,1.4,1.5,2.2c0.4,0.8-1.8,1.7-3.5,1.9c0,0,0,1.1,1.6,1.3c1,0.1,3.2-0.7,3.2-0.7s1.3,1.7,1.4,3.4c0,0-1.5,0.6-2.9,0.6
		c-1.4,0-0.8,1.1-0.1,1.6c0.7,0.5,3.2,0.7,3.2,0.7s0.1,1.7-0.6,3.2c-0.2,0.5-0.8,0.6-1.3,0.4c-0.5-0.1-1.5-0.1-1.8,0.4
		c-0.4,0.9,0.4,1.8,0.4,1.8l1.5,0.5c0,0-1.3,2.6-2.7,2.8c-0.8,0.1-1.3-0.6-2.1-0.2c-0.3,0.1-0.2,0.7-0.3,1.6
		c-0.1,0.4-1.1,0.9-3.1,1.2c-0.8,0.1-1.9,0.1-3.6-0.1c-1.7-0.3-2.2-1.7-2.2-1.7s5.7-1.6,6.5-6.2
		C225.8,275.4,223.2,271.7,218.5,266.3 M243.1,223.4c0,0-3.3-0.7-3.8-1.1c-0.6-0.6-0.3-2.6-0.3-2.6s3.4,1,3.7,1.2
		C243,221.9,243.1,223.4,243.1,223.4 M228.4,203.8c-1.3-0.6-4.2-0.7-4.7-0.8c-0.5-0.1-2.6,0.8-2.8,0.6c-0.5-0.6-1.2-0.9-2.2-2.2
		c-1-1.2-1.4-2.7-2.4-4.5c-1-1.8-2.9-2.2-4.1-2.8c-1.2-0.6-3-2.9-3.5-4.2c-0.5-1.2-1.2-2.5-2-1.5c-0.6,0.8-0.8,1.4-1.6,1.2
		c-0.8-0.2-0.6-1.9-0.6-1.9s0.1-1.3,0.1-2.9c0-1.6,0.3-8.4,1.7-9.9c1.4-1.5,2.4-2.1,4.9-1.9c1.8,0.1,3.7,0,5.3,0.2
		c1.5,0.2,3.4,0.1,4.7,0.8c0.5,0.2,0.8,1.9,0.8,1.9s0.6,3.5,1.3,4.4c0,0-0.9,0.5-2.1,0.3c-1.2-0.2-4.7-2.6-6-3.6
		c-1.3-1-2-1.4-3.1-1.4c-1,0-1.6-0.1-2.3-0.3c-0.5-0.1-1.4,0-0.9,1c0.5,1,1.7,0.9,2.8,1.2c1,0.3,3.2,2,4.3,2.8
		c1.1,0.8,3.3,2.5,4.9,2.8c1.5,0.3,3-0.2,3-0.2s0.6,1,0.3,2.7c0,0-1.4,0.1-3.1,0.6c-1.7,0.5-2.2,1.7-2.3,2.1c-0.1,0.4,1,1.7,1.5,1.6
		c0.5-0.1,0.6-1.1,1.5-1.5c1-0.4,2.1-0.3,2.6-0.2c0.5,0.1,0.4,0.6,0.5,1.6c0.1,1,0.6,2.9,0.5,3.1c-0.1,0.3-1.7,0.2-1.6,1.4
		c0.1,0.9,1.6,0.4,2.2,0.9c0.9,0.7,1.1,1.5,1.6,2.4c0.5,1,1.5,3,1.8,3.9c0.3,0.9,0.9,3.5,1,3.9C230.3,205.1,229.7,204.4,228.4,203.8
		 M229.7,209.9c-0.4,0.6-0.8,0.9-1.7,1.5c-0.8,0.6-1.6,1-2.6,1.7c-0.9,0.7-1.6,0.6-2.3,0.5c-1.1-0.2-1.3-1.1-1.4-1.8
		c-0.2-1.2,0-1-0.8-1.8c-0.8-0.9-0.6-1.6-0.3-2.4c0.4-0.9,0.9-1.3,1.5-1.7c1-0.6,5-0.6,6.3,0.6C229.7,207.7,230.1,209.3,229.7,209.9
		 M256.3,120.5c0,0-0.2,1.8-1.3,1.9c-2,0.2-7.6,0.2-9.5,0c-1.1-0.1-1.3-1.9-1.3-1.9H256.3z M244.8,118.4l5.3-8.8l5.6,8.8H244.8z
		 M297.2,183c-0.2-1.3-1.1-0.1-1.3,1.3c-0.3,1.5-2.4,5.5-3.3,7c-0.9,1.5-1.5,3.9-1.6,4.9c-0.1,1-0.6,1.1-1.8,1.5
		c-1.2,0.3-3.4,2.3-3.4,2.3s-0.6,1-1.3,1.2c-0.6,0.2-1.2,0.1-1.9,0c-0.8-0.2-1.5,0-2.7,0c-1.2,0-2.7,0.6-3.7,1.2
		c-1.1,0.6-1.2-0.4-0.4-2.2c0.7-1.8,2.2-3.8,2.4-4.7c0.2-0.9,0.9-1.6,0.9-1.6s2.1-0.7,2.7-0.6c0.6,0.1,1.2-0.4,0.6-0.9
		c-0.6-0.5-2.1-0.9-3.1-0.6l0.3-3.6c0,0,1.1-0.7,2.7-0.6c1.6,0.2,2.2,0.3,2.1-0.6c-0.2-0.9-1.9-1.6-2.8-1.5
		c-0.9,0.1-2.1,0.3-2.1,0.3s0.2-1.7,0.2-2.5c0-0.9,2.7-0.7,3.6-1.6c0.9-0.9,1.4-1.3,2.4-2.7c1-1.3,1.9-2.2,3.9-2
		c2,0.3,3.3-0.1,3.9-0.9c0.6-0.7-0.4-0.3-1.9-0.6c-1.5-0.3-3.3-0.5-4.6-0.5c-0.7,0-2.7,1.9-3.4,3.1c-0.7,1.2-1.7,2.1-3.9,1.8
		c0,0-0.4-0.9,0.2-2.2c0.6-1.3,1.7-3.1,2.3-4.2c0.6-1.1,4-1.6,6.7-1.6c2.5,0,5.5,0.5,7.3,2.4c1.7,1.8,2.4,3.5,2.7,5
		c0.3,1.5,0.3,4.8,0.5,6.1c0.1,1.3,0.6,3.9,0,4.2c-0.6,0.3-2.1,0.3-2.8,0.6c-0.6,0.2,0.6-1.6,0.7-3.2
		C297,185.2,297.5,184.5,297.2,183 M267.4,234.9c0.4-0.1,0.8-0.1,0.8-0.1s-0.3,3-3.6,2.7c-2-0.2-3.1-1.6-3.2-4.2
		c-0.1-1.8,1.1-1.1,1.1-1.1S264.1,235.5,267.4,234.9 M263.9,230.3c0,0,0.2-5.7,0.6-10.6l4-1.4c0,0,0.8,6.1,1.1,9.3
		c0.2,2.5-0.5,5-2.2,5.3C265.7,233.2,263.9,230.3,263.9,230.3 M263.4,240c6.5,0.5,7.9-4.8,8.4-10.1c0.4-4.2-1-13.2-1-13.2l0.6-1
		l-0.3-2.1c0,0,1.3-0.4,2.1-1.6c0.9-1.1,1.5-1.7,1.5-1.7c1.3,1.2,2.2,2,2.2,2c-2.5,28.3-9.4,42-19,50.5
		c-8.7,7.7-20.6,10.8-20.6,10.8c0-1.4-1.7-5.1-1.7-5.1c2.5-1,5-1.7,10.7-4.6c7.1-3.6,9.5-7,9.5-7c2.5-1.1,4.6-4,5.5-6.9
		C262.8,245.5,263.4,240,263.4,240 M275.8,207.8c-0.2-0.6,0-2.3,0-2.3s1.4-1.5,2.8-1.8c1.3-0.3,3.9-0.5,4.4-0.2
		c0.5,0.3,1,0.9,1.2,2.1c0.2,1.1,0.5,3.6,0,4.1c-0.9,0.9-1.2,1.3-2.8,1.5c-1.6,0.1-2.7-0.5-3.4-1.3
		C277.1,209.1,276,208.4,275.8,207.8 M280.9,170.2c-0.2-0.1-0.1-4.3-1.7-6.6c0,0,0.5-2.4,2.1-2.8c1.6-0.4,6.4-0.4,6.4-0.4l-3.3,9.5
		C284.4,169.9,281.3,170.3,280.9,170.2 M280.9,158.4c0,0-2.3-3.2-9.2-5.9c-5.9-2.3-11.9-2.7-11.9-2.7c-0.7-1.3-4-4.9-4-4.9
		c6.8,1.2,12.4,2.1,18.6,4.7c9.3,4,12.3,8.5,12.3,8.5L280.9,158.4z M260.7,152.1c0,0,11.3,0.4,17.9,7.1c0,0-0.9,1.5-1.2,2.3
		c0,0-6.2-5.8-16.5-6.4C260.9,155.1,261.1,153.7,260.7,152.1 M250,135.2c0.2,0.1,3.1,1.5,5.5,3.5c1.7,1.5,0.7,3.9,0.7,3.9
		c-2.6-0.3-6-0.3-6-0.3H250c0,0-3.2,0-5.7,0.3c0,0-0.9-2.4,0.8-3.9C247.3,136.8,249.9,135.3,250,135.2 M250.1,144.5
		c0.9,0,4.2,2.9,5.9,4.8c1.7,2,2.2,4.4,1.8,5.9c0,0-7.1,1.4-7.6,1.8H250c-0.5-0.3-7.2-1.8-7.2-1.8c-0.4-1.5,0.1-3.9,1.7-5.9
		C246.2,147.4,249.2,144.6,250.1,144.5 M259,140c0,0,5.4,0.4,8.7,2.2c0,0-0.7,1-1,2.3c0,0-4-0.8-7.9-1.5
		C258.8,143,259.1,141.2,259,140 M276.6,145.7c-0.2,1.4-1.1,1.8-1.1,1.8s-3.3-1.4-6.4-2.3c0,0,0.2-2.9,4.4-5.1
		C273.5,140.1,276.8,144.2,276.6,145.7 M269.7,139.7c0,0-2.8-1-5.5-1.7c0,0-1.3-6.2-5.8-11.7c0,0,8.3,4,13.6,11.7
		C272,138,270.4,138.8,269.7,139.7 M261.1,137.5c0,0-2.5-0.4-3.7-0.4c0,0-3.1-2.9-5.8-4c0,0-0.4-6.4-0.4-8c0-0.7,3-0.4,4.1,0.7
		C257,127.6,259.9,131.5,261.1,137.5 M245.1,125.9c1-1.2,3.8-1.4,3.8-0.7c0,1.2,0.2,1.2-0.3,8c-2.5,1-5.5,4-5.5,4
		c-1,0-3.4,0.4-3.4,0.4C240.8,131.5,243.6,127.6,245.1,125.9 M241.9,143c-3.7,0.7-7.4,1.5-7.4,1.5c-0.2-1.4-1-2.4-1-2.4
		c3.1-1.8,8.2-2.1,8.2-2.1C241.5,141.2,241.9,143,241.9,143 M236.8,138c-2.5,0.7-5.2,1.7-5.2,1.7c-0.7-0.9-2.2-1.7-2.2-1.7
		c5-7.6,12.8-11.7,12.8-11.7C238.1,131.7,236.8,138,236.8,138 M232.2,145.2c-2.9,0.9-6,2.3-6,2.3s-0.8-0.5-1-1.8
		c-0.2-1.4,2.9-5.5,2.9-5.5C232,142.3,232.2,145.2,232.2,145.2 M227.2,149.6c5.9-2.7,11.2-3.6,17.5-4.7c0,0-3.2,3.6-3.9,4.9
		c0,0-5.4,0.3-10.9,2.6c-6.5,2.7-8.8,6-8.8,6l-5.4-0.2C215.7,158.2,218.4,153.6,227.2,149.6 M239.9,155c-9.7,0.6-15.5,6.5-15.5,6.5
		c-0.3-0.8-1.2-2.3-1.2-2.3c6.2-6.7,16.7-7.2,16.7-7.2C239.6,153.6,239.9,155,239.9,155 M220.7,160.8c1.5,0.4,1.9,2.9,1.9,2.9
		c-1.3,2.2-1,7.1-1.4,7.1c-0.3,0-3.1-0.5-3.1-0.5l-3.5-10C214.7,160.4,219.2,160.4,220.7,160.8 M244.5,256.1
		c2.8,1.5,6.4,1.7,6.4,1.7c-0.9,1.2-4.2,3.1-9.1,5.5c-3.3,1.6-7.5,2.9-7.5,2.9c-0.5-1-2.8-4.1-2.8-4.1
		C239.8,258.4,244.5,256.1,244.5,256.1 M223,290.2c6,0,12.3-4,14.3-13c0,0,23.7-5.7,32.9-24.3c1.6,0.6,3.5,1,7.4,0.9
		c4.9-0.1,6.5-1.2,7.7-1.6c-0.2,4.7-0.9,7.4-0.9,7.4s-0.7-1-1.6-1.7c-1.3-0.9-1.8,0-0.8,2.4c1,2.4,3,9,0,17.6
		c-3,8.7-9.3,13.9-13.9,15.5c0,0-1.8-2.1-5.5-3c-3.7-0.9-11.2-1.9-16.7,3.6c0,0-3,1.9-3.7,1.9c-0.8,0-3.6,0.4-4.9,1.5
		c0,0-1.6,1.1-2.6,1.2c-2.4,0.3-16.2-0.9-22.6-8.1l-1-1.5l4.9-1.5C215.8,287.7,217.3,290.2,223,290.2 M247.1,343.6
		c0,0-4.9-1.1-9.6-3.8c0,0,7.2-8.6,9.5-21.9c1.7-10.1-0.1-15-1.5-19.4c-0.4-1.1,0.9-1.8,1.6-1.5c1.1,0.4,3.6,3.6,3.7,12.6
		c0.1,6.1-1.5,15-2.4,20.3C247.3,336,246.4,340.5,247.1,343.6 M220,299.2c9.4,3.6,16.1,2.8,16.1,2.8s1.1,3.3-0.1,6.3
		c0,0-11.9,0.3-22-5.1c-9-4.8-13.9-10.9-10.9-13.6h4.8C207.7,289.6,209.8,295.4,220,299.2 M238.4,301.2c-0.1-1.3,1.5-0.9,1.5-0.9
		s3,12-3.9,23.4c-7.8,12.8-18.9,16.2-18.9,16.2l-6.7-3.6l-1.8-3.1c0,0,9.9-1.3,20.6-9.7C239.9,315.2,238.5,303.4,238.4,301.2
		 M206.6,331.1c0,0-6.1-2.6-9.9-4.5c-2.1-1-8.1-8.8-16-13.1c-7.9-4.3-15.5-4-15.5-4s5.1-3.3,7.6-3.3c2.5,0,10.4,2.2,17.8,7.9
		c7.3,5.7,13.4,13.4,20.3,15.9L206.6,331.1z M151.1,317.6c0,0-0.5-0.3-1.8-0.9c1.2-0.5,4-3.2,5.1-4.8c0.7-1.1,2.4-3,3.7-4
		c1.8-1.4,5.7-3.8,7.8-2C165.8,306,156.5,311.2,151.1,317.6 M163.6,312c4.9-0.7,16.7,1.2,25.7,11c0,0-7.2-1.6-10.9-1.1
		c0,0-9.4-9.6-23.3-4.5C155,317.5,159.2,312.6,163.6,312 M168.9,325.6c-0.5-0.8-1.6,0.1-2,1.3c-0.8,2.1-0.7,4.4,1,6.8
		c3.4,4.6,23.1,10.2,23.4,11c0.3,0.8,0,4.8,0,4.8s-20.4-6.1-25.8-10.2c-5.4-4-3.8-11.1-1.8-14c2.5-3.9,4.6-5.7,4.6-5.7
		s2,0.4,2.9,0.9c-1,0.9-1.2,1.1-1.8,1.9c-0.5,0.7,0.8,1.6,1.9,0.6c1-0.8,2.1-1.5,2.1-1.5l1.9,1.3c0,0-3,1.3-3.3,3.4
		c-0.3,2.1,0.3,4,5.9,5.6c6.3,1.9,12,3.7,12,3.7s0.9,2.9,1,6.1c0,0-12.7-3.9-17.2-6.4c-4.5-2.5-5.2-4-5.2-6.1
		C168.5,327,169.4,326.3,168.9,325.6 M187.2,332c-1.1-0.3-9.7-2.8-11.4-3.5c-1.7-0.7-1.4-3.3,0.9-3.7c2.2-0.4,5.9-0.5,8.3,0.6
		c2.4,1.1,2.8,3,3.6,4.9C189.3,332.5,189.1,332.6,187.2,332 M165.3,319.3c0,0-2.7,2.7-4.9,7.3c-1.7,3.5-2.3,11.5,5,15.6
		c9.6,5.4,25.6,10.1,25.6,10.1s-0.2,4.3-0.9,4.2c-10.1-2-26.6-7-31.8-12.7c-4.5-5-5.5-14.6,2.3-24.1
		C162.3,319.1,164.3,318.8,165.3,319.3 M194.9,365.6l-4.6-1.9c0,0,3.7-4.8,3.7-16.8c0-10.3-2.9-17.2-5-20.8c2.8,0.9,8.1,3.7,8.1,3.7
		s3.8,5.5,3.5,19.5C200.5,358.7,194.9,365.6,194.9,365.6 M203.3,350.9c0.9-10.8-3-19.6-3-19.6s4.2,1.3,6,3.7
		c1.8,2.4,3.4,8.4,2.1,18.9c-1.5,11.5-7.2,17.2-7.6,16.6c-1-1.8-3.7-3.4-3.7-3.4S202.3,361.7,203.3,350.9 M210.7,339l5.6,3.6
		c0,0,4,4,2.1,12.6c-1.8,8.4-7.4,10.1-7.4,10.1l-2.4-0.9C214,351.6,210.7,339,210.7,339 M220,358.4c2.5-7.3,0.1-13.9,0.1-13.9
		c3.1,1,3.4,3.9,3.4,3.9s1,2.8-0.4,9.6c-1.3,6.7-5.4,9.6-7.4,10c-1.9,0.4-3-1-3-1S217.7,365,220,358.4 M224,363.6
		c3.9-7.8,1.5-16,1.5-16c2.4-0.2,2.9,4,2.9,4s0.8,3.2-0.3,8.3c-1.3,6.2-4.5,10.2-7.9,11.4c-2.8,1-3.3-0.9-3.3-0.9
		S221.1,369.5,224,363.6 M228.2,345c-1.8-1.2-4.2-0.6-4.2-0.6c-1.2-1.8-4-2.4-4-2.4s11.2-4.4,18.2-17c7.2-13,3.8-25,3.8-25
		c-0.1-0.8,1.1-1.1,1.4-0.4c0.3,0.8,3.8,9.2-0.2,22.9C238.7,337.3,228.2,345,228.2,345 M235.5,342.6c0,0,4.5,2.2,12.7,4.6
		c0,0,4.5,4.1,7.9,4.5l0.6,2.8c0,0-6.2,0.1-12.4-3.7c0,0-4.5-2.6-13-3.7C231.3,347.1,233.5,345,235.5,342.6 M257.4,349.2
		c-7-1.5-8.2-7.4-7.2-12.9c1-5.5,4.5-24.1,2.8-32.6c-1.3-6.7-4-8.2-4-8.2c4-3.8,10-3.3,13.1-2.2c3.3,1.2,4.9,3.5,5,8.7
		c0.1,5.2-0.9,28.3,1.5,34.9c2.1,5.8,5.6,8,5.6,8C270.6,349.4,264.5,350.7,257.4,349.2 M282.8,359.2c0,0-7.8-0.5-10.5-8.3
		c0,0,3.1-1.7,4.8-3.4c2,1.4,9.9,2.8,9.9,2.8S282.1,352,282.8,359.2 M269.8,351.9l1.1,2.4c-6.3,2.4-11,1.2-11,1.2l-0.5-3
		C264,353.5,269.8,351.9,269.8,351.9 M272.3,356.6l2.6,2.4c-5.4,4.4-13.7,2.3-13.7,2.3l-0.8-3.7
		C267.6,358.9,272.3,356.6,272.3,356.6 M275.2,364.9c1.8,2.8,4,3.7,4,3.7s-3.4,1-5.8,0.3c-3.5-1-4.1-2.7-4.1-4.9l3-0.9
		C272.4,363.1,274.1,363.2,275.2,364.9 M266.8,364.3c0,0-0.6,3.4,3.1,5.8c3.8,2.4,9.1,1.4,11.3,0.7c2-0.7,4.1-2.6,1.7-2.7
		c-2.2-0.1-4.4-2.7-5.6-4.3c-1.2-1.5-2.4-1.9-2.4-1.9l2-1.4c7.7,4,12.3,0.9,16.3,0.8c4.1-0.2,5.7,2.8,5.7,2.8s-4,1-6.5,5.5
		c-4.4,8-10.5,10.7-16,11.1c-7,0.5-8.2-2.7-8.2-2.7c3.2-2.4-0.2-3.4-0.2-3.4c-4.1-1.3-6.3-10.6-6.3-10.6
		C263.9,364.4,266.8,364.3,266.8,364.3 M296.5,369.1c0,0,1.4-2.5,3.4-1.4c0.8,0.5,0.7,2.1,2.4,3.1
		C302.3,370.8,299,372.4,296.5,369.1 M303.5,373.4c0,0,0.7,4.8-4.8,5.8c-4.9,0.8-7.4-2.4-7.4-2.4s2.9-3.2,3.7-5
		C295,371.8,299.8,375.6,303.5,373.4 M274.1,383.6c8,0.2,14.3-4.3,14.3-4.3s4.8,4.4,11.3,2.7c6.5-1.7,7.3-7.3,6.6-9.6
		c0,0,0.7-1-0.2-2c-0.8-1-1.5-1.2-2.7-3c-0.7-1.1-0.8-3.1-1.5-4.1c-4.8-7.2-11.3-4.3-15.6-4.1c0,0-1.3-2.2,1-5.6
		c2-3,4.9-1.9,4.9-1.9s1.7,0.5,6.3,3.3c4,2.4,7.1,4.1,10.2,3.9c0,0,0.7,3.6,4.6,5.3c0,0,0.9,8.7-3.1,14.7c-3.9,6-10.2,11.1-20.5,7.3
		c-1.3-0.5-1.9-1.1-3.1-0.2c-1.9,1.5-5.8,4.3-12.1,3.6c-9.2-1-11.3-9.6-11.3-9.6l1.8-0.7C265.3,379.2,267.8,383.5,274.1,383.6
		 M312.1,358.2c0,0,2.5-0.7,2.7-0.7c0.3,0,1.9,1.9,2.2,2.2c0.5,0.6-0.6,2.1-2.7,1.4C312.2,360.5,311.9,358.5,312.1,358.2
		 M305.4,318.6c7.3,3.5,9.9,8.4,10.4,9.8c0.3,1-0.3,1.8-1.2,1.9c-0.9,0-2.3-0.1-2.3-0.1s-2.1-5.6-7.7-8.5
		c-7.7-4.1-13.4-3.7-13.4-3.7c0.7-1.5,2.4-2.2,2.4-2.2S298.2,315.2,305.4,318.6 M296.8,313.1l2.6-3c0,0,9.7-2.9,20.6,2.4
		c4.6,2.2,6.9,8,6.9,8l-8.7,5.9C310.2,313.7,296.8,313.1,296.8,313.1 M303,323.7c4.4,2.2,5.6,6.5,5.6,6.5l-4.5-0.1
		c-1.2-2.7-5-5.3-9.1-6.4c-4.9-1.2-7.9-0.8-7.9-0.8c0.5-1.6,2.9-2.3,2.9-2.3S295.4,319.8,303,323.7 M287.9,325.5
		c3.2-0.4,7.2,1,9.3,1.9c2.7,1.1,3.4,2.7,3.4,2.7s-2.4-0.1-5.7-0.5c-2.8-0.3-3.4-0.8-5.2-1.4c-1.8-0.6-2.3-0.1-3.4,0.1
		c-0.6,0.1-2-0.1-1.5-1.5C284.8,326.9,285.1,325.9,287.9,325.5 M331.2,331.3c-1.5,0.4-4.4,0.1-6.5,0c-2-0.1-6.1-0.6-6.1-0.6
		s0.5-0.5,0.6-1.5c0.5-0.6,1.3-0.9,2.5-1.8c2.6-1.9,6.6-4.2,6.6-4.2c2.5,4.2,6.7,5,6.7,5l-0.4,2.1
		C333.7,330.4,332.7,330.9,331.2,331.3 M336.1,339c0,0,0.4,2.1,1.1,3.3c-0.7,0.3-1.3,0.4-2.2,0.6l-0.3-1.7
		C334.7,341.2,336,339.7,336.1,339 M336,325.4c-7.4-2.3-4.2-8.6-12.9-14.5c-8.7-5.9-21.7-3.8-21.7-3.8l2.9-3.5c0,0,4.6-1.4,12.7,0.2
		c6.9,1.4,13.9,5.5,16.5,11.3c2,4.4,4.8,6.7,4.8,6.7L336,325.4z M322.8,302.7c-8.7-3-16.5-2-16.5-2l3.1-3.9
		c11.7-0.3,18.9,1.8,25.2,7.4c5.8,5.1,5.6,8.3,8.8,12.1c-2.3,2.1-3.3,3.2-3.3,3.2C335.5,316.8,337.7,307.8,322.8,302.7 M318,294.1
		c-1.4-0.1-5.8-0.2-5.8-0.2s1.7-2.5,6.4-5.4c4.4-2.7,7.3-2.9,7.3-2.9C320.7,289,318,294.1,318,294.1 M327,287c1-0.8,2.8-2.5,4.4-2.3
		c2.3,0.2,1.8,1.5,1.5,2.2c-0.3,0.7-7.6,8.7-7.6,8.7l-4.7-1.1C320.7,294.5,323.6,289.9,327,287 M353.5,276.6
		c2.1,2.2,2.2,8.5-2.5,13.9c-4.7,5.4-13.5,12-13.5,12l-3-2.5c4.7-5.9,12.3-11,12.9-16.5c1-8.2-8.7-10.7-8.7-10.7
		C343.7,269.4,351.4,274.4,353.5,276.6 M344.8,281.4c-0.1,3.8-3.3,6.9-7.1,11c-1.7,1.9-5.4,5.6-5.4,5.6l-4-1.5c0,0,8.1-8.5,8.8-11.8
		c0.7-3.3-1.5-3.2-1.5-3.2s0.3,1.1-0.6,1.2c-0.8,0.1-2.2-0.3-3.6-0.6c-1.4-0.3-3.2,0.1-3.2,0.1l-2,0c0,0,1.2-1.9,2.7-3.1
		c0,0,2.2-0.5,5.3,0c1,0.2,1.2-2.2-2.4-2.5c0,0,1.8-1.6,3.4-2.3C337.1,273.8,344.9,277,344.8,281.4 M325.2,272
		c1.9-0.7,5.9-1.7,10.3-1.1c0,0-8,3.4-12,12.1c0,0-4.5,1.5-6.7,3.2C317,284.2,319.1,274.1,325.2,272 M320.9,272.4
		c-6.6,6-7.2,16-7.2,16c-3,2.3-6.2,6.5-6.2,6.5c1.1-13.1,5.8-19.9,5.8-19.9C314.9,274,320.9,272.4,320.9,272.4 M300.5,282.1
		c0.4-2.1,1.3-3,2.3-3.7c1.7-1,7.4-3,7.4-3s-1.5,2.5-3.1,7.3c-2,6-2.5,14.7-2.5,14.7c-0.4,1.5-11.6,15.1-11.6,15.1
		c-4.1,1.5-5.1,5.2-5.1,5.2c-3.3,1.3-3.9,4.6-3.9,4.6c-2.5,0.9-3.4,4-3.4,4c-7.3,2.7-8.9,9-8.9,9c-2.2-3.3-1.5-18.7-1.5-18.7
		s3.1-0.6,6.9-2.7c4.6-2.5,6.1-7.4,6.1-7.4s4.7-0.3,8.1-3.9c3.7-3.9,3.8-9.6,3.8-9.6C297.6,291.5,299.6,287.2,300.5,282.1
		 M291.6,281.9l6.1-1.5c0,0-0.1,2.7-1.1,5.4c-1.8,4.6-4.2,5.3-4.2,5.3s-0.3,5.1-3,8.8c-2.8,3.7-8,4.1-8,4.1
		c-2.5,7.7-11.3,9.4-11.3,9.4l0.1-7.5c0,0,9.2-2.9,14.4-9.5C291.5,287.6,291.6,281.9,291.6,281.9 M288.6,281.5c0,2.1-1,7.5-6.7,13.6
		c-5.6,5.8-11.8,7.5-11.8,7.5c0-1.4-0.1-3.2-0.5-5.8c0,0,4.7-1.4,9.6-7.3c4.9-5.8,6.6-12.2,6.6-12.2S288.6,279.3,288.6,281.5
		 M300.3,246.6c-3.5-0.6-3.6-4.5-2.3-7.9c0.9-2.4,2.1-4.7,3.9-7.4c1.7,0.8,3.7,0.8,3.7,0.8s-1,0.8-2.9,4.7
		C300.3,242,300.3,246.6,300.3,246.6 M306.7,226.7c1.5,0.6,3.4,0.3,5.9,0.5c2.5,0.1,4.9,2.3,4.5,4.9c-0.4,3.3-2.9,3.4-2.9,3.4
		s0.2-2.9-1.2-4.4c-1.4-1.5-3.4-1.5-5-1.5c-1.6,0-5.1,0.2-5.7-2.1c-0.8-3.1,1.8-6.3,3.5-6.4C305.9,220.9,304.1,225.6,306.7,226.7
		 M306.4,250.4c-4.8-0.2-3.3-6.8-2-10.7c1.3-3.9,4-7,4-7s1.4-0.9,2.6,0.3c1,1.2,0.3,2.8,0.3,2.8s-1.7,1.3-3.1,5.1
		C306.5,245.6,306.4,250.4,306.4,250.4 M346.4,243.4c-3.1,7.4-11.2,17.4-16.6,17.2c-9.6-0.3-20.2-9.5-20.2-9.5
		c-0.3-8.2,3.5-12.9,3.5-12.9c2.8,0.6,4.9-1,5.6-2.5c1.6-3.5,0.7-6.3,0.7-6.3c0.7-1.3,3-2.5,3-2.5l1.4,1.1c-1.6,2.1-3,8.6-2.9,10.6
		c0.1,2.1,2.2,2.1,2.2,1c0-1.2,1.3-6.6,4.1-11.7c2.9-5.1,7.6-9.3,7.6-9.3s1.6,3.5,5.9,6.7c5.1,3.9,9.2,4.4,9.2,4.4
		S349.2,236.7,346.4,243.4 M335.6,197.1c1,0.5,0.9,2.2,0.9,2.2s-3.4,0.1-4.5-0.5c-1.2-0.6-1.5-2.8-1.5-2.8
		C332.1,196.2,334.6,196.6,335.6,197.1 M328.2,192.6c-0.9-0.9,0.3-2.8,0.3-2.8c1.9-0.2,3.3,1.5,4.5,2.6c0.9,0.8,0.6,1.7,0.6,1.7
		S329.1,193.6,328.2,192.6 M332.5,205.9c-3.8,1.5-9.2,0.6-9.2,0.6c-2-0.8-1.3-2.9-1.3-2.9c3.6,1.5,9.3,0.6,9.3,0.6
		C331.6,205,332.5,205.9,332.5,205.9 M333.3,208.1l0.7,0c0,1.2,0.7,1.8,0.5,1.9c-3.2,2.2-9.5,2-11.7,1.5c-1.5-0.4-0.7-2.8-0.7-2.8
		C328.9,210,333.3,208.1,333.3,208.1 M335.5,212.3l0.4,0.4c-1.2,1-1.9,3-1.9,3c-4.1,2.6-8.9,9.6-8.9,9.6l-0.7-0.7
		c0.3-4.2-3.6-5.6-3.6-5.6c-0.4-2.2,1.1-5.1,1.1-5.1C330.4,215.6,335.5,212.3,335.5,212.3 M351.9,226.9c-2.1,0.8-5.7-0.5-8.9-3
		c-3.3-2.6-6.1-5.9-5.8-7.8c0.4-2.1,1.6-3,1.6-3s0.6,3.5,5.5,7.4c4.6,3.7,8.8,3.6,8.8,3.6S353.2,226.4,351.9,226.9 M384.6,199.1
		c0.8-1.2,0.6-2.3,1.5-2.6c0.9-0.2,1.6,0.9,1.4,1.6c-0.2,0.7-0.3,1.3-1.1,2.6c-0.3,0.5-1.6,1.5-1.6,1.5l-1.8-0.9
		C383,201.3,383.8,200.3,384.6,199.1 M370.9,185.3c0.9,0,5.8,0.7,6.3,0.7c0.5,0,0.6,1.1-0.1,1.3c-0.7,0.2-1.9,0.3-3.4,0.3
		c-1.4,0-1.6,0-2.4-0.3c-0.6-0.2-1.9-1.4-2.1-1.6C369.1,185.7,370,185.3,370.9,185.3 M355.3,191.4c-0.1-1.9-0.2-2.7,0.6-3.5
		c0.6-0.6,1.9-0.5,3.2,0c1.1,0.4,3.3,0.7,4.5,0.7c1.3,0,4.2,0,4.9,0.2c0.7,0.2,1.1,0.8,1.2,2c0.1,1.2,2.8,3.6,4,3.9
		c1.2,0.3,3.3,0.3,2.7-0.3c-0.5-0.5-2.2-1.7-2.7-2.3c-0.4-0.6-1.6-2.3-0.9-2.1c0.7,0.1,3.8,0.2,4.5,0.1c0.7-0.1,0.7-0.7,1.6-0.9
		c0.9-0.2,2.4-0.3,3.2-0.2c0.8,0.1,0.6,1.5,0.6,2.8c0,1.3-0.1,3.6-1.2,6.2c-1,2.4-3,5.2-7.5,6c-3.5,0.6-11.2-0.1-13.4-0.8
		c-2.2-0.7-3.9-0.6-4.6-1.2c-0.7-0.6-1.6-1.8-1.5-3.5c0.1-1.4,0.9-2.5,1.1-3.5C356,193.9,355.4,193.1,355.3,191.4 M376.7,206.8
		l-0.9,1.3l-2,0.2l-1.5-1.1L376.7,206.8z M345.4,206.5c0.4-2.6,5.2-5.5,6.9-6c0,0,0.2,2,1.4,3.1c0,0-1.6,1.8-1.7,2.4
		c-0.1,0.6,0.9,1.7,2.6,1c1.6-0.7,3.5-1.9,6.8-1.4c5.5,0.8,10.1,3.7,11.2,5.1c2.2-0.7,4.5-0.3,4.5-0.3s0.8-0.9,1.4-1.5
		c0,0,0.6-5.1,3.6-5c0,0,0.8,0.3,0.3,1.3c-0.5,0.9-0.9,3.5-0.9,4.4c0,1.4-2.8,3.5-3.9,4.2c-1.5,0.9-3.4,0.8-6.4,0.1
		c-2.3-0.5-6.1-0.7-9.2,0c-3.1,0.7-5.3,2-6.1,2.1c-0.8,0.1-3.4,0.6-5.4-0.8C348.4,213.9,344.8,210.3,345.4,206.5 M342.5,209.2
		c0.4,1,1.5,4.3,5,7.1c3.8,3,7.1,2.4,7.1,2.4s0.1,2.5-1.7,2.5c-1.9,0-5-0.9-7.7-3.1c-2.5-2-4.6-5.9-4.5-6.6
		C340.6,211.4,341.2,209.6,342.5,209.2 M340.4,207.5c-1.6,1.1-2.5,2.8-2.5,2.8c-1-0.6-1.6-3.5-1.6-3.5s2.3-0.5,3.9-0.1
		C340.7,206.9,340.9,207.2,340.4,207.5 M339,202.7c0.6,1,0.9,1.9,0.9,1.9s-4.1,0.1-5.1-0.5c-1-0.6-1.2-2.4-1.2-2.4
		C334.9,201.8,338.4,201.7,339,202.7 M331.2,166.5c1.3,1.2,2.2,2.4,3.8,7c1.6,4.5,4,11.9,3.9,15.3c-0.1,3.7-2.1,6.1-2.1,6.1
		s-0.2-1.5-0.6-2.2c-0.3-0.5-2.5-3.3-4-4.3c-1.5-0.9-4-1.8-4-1.8l-2.5,0.3c0,0,0.2,1.3,0.4,1.6c0.2,0.3-0.8,3-2.2,3.1
		c-1.4,0.1-2-3.1-2.3-4.1c-0.4-1.6-0.4-2.5,0.2-2.9c0.6-0.5,2.5-1.9,2.8-2.7c0.2-0.8-2.1-0.9-2.1-0.9s-1.4,1.2-2.7,1.6
		c-1.3,0.5-1.7-1.1-1.6-1.9c0.2-1,0.3-2.7,1-3.1c0.7-0.5,3.9-1.7,4.4-2.1c0.5-0.5,0.2-1.5-0.6-1.6c-0.8-0.1-3.7,0.7-4.3,0.5
		c-0.6-0.2,0.2-1.7,0.7-2.7c0.5-1.2,1.8-1.6,2.1-1.6c0.4,0,2-0.3,2.6-0.7c0.6-0.3,0.3-1.9,0.3-1.9l-1.4-0.2c-1.5,0.1-4,0.9-4,0.9
		s0-2.4,1.3-3c1.3-0.6,3-0.6,4.4-0.1C326.1,165.5,329.9,165.4,331.2,166.5 M316.2,161.1c-1.1-0.5-1.5-2.3-1.3-3.8
		c1.2,0.7,3.5,1,3.5,1c-0.2,1.4,0.5,3.6,0.5,3.6S317.6,161.8,316.2,161.1 M318.1,164c0,0-0.6,0.7-0.7,1.6c-0.3-0.4-1.4-1.2-1.4-1.2
		l0.4-1L318.1,164z M327.8,159.8c-0.1-0.6,0.2-0.4,0.3-0.3c0.1,0.1,0.3,2.7,0,3.1c-0.3,0.4-0.3,0-0.3,0S328,161.4,327.8,159.8
		 M327.4,157c0.9-1.7,0.6-5.7,0.6-5.7l1.6,1c0,0,0.1,0.5-0.2,2.6C329.1,157,327.4,157,327.4,157 M328.2,142.4l-2.9-1.8
		c0,0-0.3-0.4-0.4-1.6c-0.1-2,0.3-2.8,0.3-2.8l0.6-0.6l3.1,1.9c0,0,0.4,0.7,0.3,2.6C329.1,142.1,328.2,142.4,328.2,142.4 M327.2,144
		c0.3,0.3,0.7,1.6,0.2,3.4c-0.4,1.5-0.9,2.1-0.9,2.1l-3.2-2.4l0.2-2.1c0,0,0.3-2,1.2-2.2C325.2,142.7,326.9,143.7,327.2,144
		 M326,152.6c0.4,1.6-0.1,4.2-0.8,3.9c-0.3-0.1-2.8-1.3-3.5-2.6c-0.4-0.8-0.2-1.7,0-2.6c0.2-1.1,0.9-2.3,1.5-1.7
		C323.9,150.4,325.6,151,326,152.6 M322.2,157.5c0,0,3,1.3,3.1,1.7c0.4,0.7,0.3,3.2-0.1,3.3c-0.7,0.3-2.4,0.3-3.4-0.2
		c-0.9-0.4-1.3-2.1-1.3-3.1C320.3,156.9,322.2,157.5,322.2,157.5 M331.8,137.2c0,0,0.8-0.1,1.3,2.2c0.1,0.7-0.3,2.6-0.3,2.6l-1.4-1
		c0.2-0.6-0.2-3.1-0.2-3.1L331.8,137.2z M330.6,143.7l1.3,0.7c0,0-0.1,1.9-0.2,2.9c-0.2,1.3-1.3,2.4-1.3,2.4l-1.4-0.8
		c0,0,0.7-3.1,0.8-4.2L330.6,143.7z M329.3,130.5c0,0,0.1,0.2,0.4,1.4c0.3,1.3-0.2,3.1-0.2,3.1s-2.7-1-3.3-1.7
		c-0.6-0.7-0.4-3.7-0.4-3.7L329.3,130.5z M325.5,122.6c0.7,0.1,1,0.2,1.7,1.1c0.7,0.8,1.5,4.3,1.5,4.3s-2.1-0.5-2.9-0.8
		c-0.5-0.1-0.7-1.3-1.3-2.6c-0.4-0.8-0.5-1.1-0.5-1.1S324.3,122.6,325.5,122.6 M320.6,132.1c0.6-1.6,3.1-2.2,3.1-1.5
		c-0.1,1.6,0.5,3.2,0.5,3.2c-1.3,0.9-1.1,3-1.1,3s-1.5,0.5-1.8,0.3C320.4,136.4,320,133.8,320.6,132.1 M321.3,139.7l1.5-0.3l0.3,1.7
		c-1.7,2.1-1.6,6-1.6,6c-0.8,0.3-1.4,2.6-1.4,2.6c0.2-1.5-0.7-4.9-0.7-4.9C320.4,143.9,321.3,139.7,321.3,139.7 M315.9,135.2
		c0.9-1.3,2-1,2-1c0,1.9,1.2,3.6,1.2,5c0,1.4-1.3,3.6-1.3,3.6l-2.9-3.7C314.8,139,315,136.5,315.9,135.2 M313.7,141.7
		c0,0,2.8,2.8,3.4,4.1c0.6,1.3,0.6,3.8,0.6,3.8s-3.3-0.8-3.8-1.8C313.2,146.7,311.5,143.3,313.7,141.7 M313.6,150.1l4.8,2.2
		c0,1.3,0.7,2.8,0.7,2.8s-0.4,0.4-1.3,0.4c-1.3,0-2-0.5-3.1-1.6C313.4,152.7,313.6,150.1,313.6,150.1 M315.5,179.5
		c0,0-0.2-1.4-0.7-3.2c-0.6-2.3-0.8-3.2-1.3-5.4c-0.6-2.1-1.6-3.5-1.6-3.5s0.9-2.4,2.8-0.9c1.4,1.2,2.7,3.4,2.7,3.4
		s-1.6,3.2-1.3,5.3C316.3,177.6,315.5,179.5,315.5,179.5 M318.6,192.6c-0.8-2.4-2.4-9.1-2.4-9.1c1.4,2.6,2.9,3.4,2.9,3.4
		c1.4,6.2,2.9,7.2,4.4,7.4c1.5,0.2,2.8,0,2.8,0l1.9,1c-0.1,3.1,2.8,5.5,2.8,5.5l-0.3,0.6c-2.1,0.6-7.4,0.1-8.5-0.8
		C321.1,199.6,319.4,195.1,318.6,192.6 M318.6,221.5c1.3-0.3,3.4,1.2,2.7,2.8l-2.9,2.3c0,0-1.5-1.3-3.6-1.5
		C314.7,225.1,317.3,221.9,318.6,221.5 M315.5,216.9c2.1,0.6,1.6,2.2,1.6,2.2c-3,1.8-5.3,4.9-5.3,4.9c-5.2,2.1-3.7-2.2-3.7-2.2
		c1.7-2.3,4.4-4.2,4.4-4.2S314,216.5,315.5,216.9 M311,215.4c0,0-2.7,2.2-3.5,3.3c0,0-2.4-0.4-4.2,1.1c-2.5,2-4.7,5.4-3.3,9.4
		c-2.7,3.2-4.4,7.6-5,11.1l-0.9-0.2c0,0,0.8-5.5,1-11.3c0-1.1,0.1-1.8,0.3-3.2c0.4-3.2-1.6-1.5-2.3,0.6c-0.4,1.3-0.4,3.6-1,9.2
		c-0.6,5.8-2.6,17.1-18.7,15.1c-1.2-0.2-1.8-0.5-1.8-0.5s6.4-13.9,7.8-36.3c0,0,3.3,0.4,4.3,0.2c1-0.1,2.3-1.1,2.7-1.9
		c0.5-1,1.1-2.2,0.8-4.2c-0.2-1.3-0.3-3.1-0.4-4.2c-0.2-1.1,1.3-1.6,2.5-2.5c1.2-0.9,3.4-1.9,6.1-0.3C298,202.3,309,212.6,311,215.4
		 M221.8,129.6c10.7-17,27.8-40.7,27.8-40.7s0.5-0.7,1.1,0c0,0,17.6,24,29.5,40.7c19,26.6,31.9,52.2,22,72.7c0,0-5.2-4.8-8.4-5.6
		c0,0,0.5-1.8,1.1-2.9c0.6-1.1,1.4-1.1,3-1.4c1.6-0.4,3.4,1,3.8-2.4c0.2-2.2-0.6-7.3-1.1-12.1c-0.4-4.3-5.7-7.6-8.2-8.1
		c-1.4-0.3-5.1-0.4-5.1-0.4l3.5-10.5c0,0-5.2-6.8-12.7-10.1c0,0,1.6-1.9,0.8-4.2c-0.5-1.2-7.5-15-20.5-21.2c0,0,1.7-3.1,0.8-4.4
		c-0.8-1.3-6.7-10.1-7.5-11.2c0,0-0.4-0.9-1.6-0.9H250c-1.2,0-1.5,0.9-1.5,0.9c-0.8,1.1-6.2,9.9-7,11.2c-0.8,1.3,0.8,4.4,0.8,4.4
		c-12.2,6.2-18.8,20-19.3,21.2c-0.8,2.3,0.7,4.2,0.7,4.2c-7,3.2-12,10.1-12,10.1l3.8,11.6c0,0-4.7-0.4-8,0.4
		c-3.2,0.7-5.1,5.1-5.3,8.9c-0.2,3.8-0.6,8-0.4,10.1c0.2,2.1,1.9,2.5,3.4,2.9c1.5,0.4,2.1-0.2,2.7,0.9c0.6,1.1,2.7,2.8,2.7,2.8
		c-3.1,0.6-10.4,2.3-10.4,2.3C193.4,181,204.1,157.6,221.8,129.6 M183.7,210.8c1.6,0.6,3.5,1.9,5.4,4.3c-0.3,0.8,0.3,2.6-0.4,3
		c-0.7,0.4-1.5,0.5-1.5,0.5c-2.1-2.6-7.4-6.1-7.4-6.1C179.5,211.1,182.4,210.4,183.7,210.8 M191.4,218.5c-0.2-1-0.3-1.7,0.2-2.6
		c0,0,0.6,1.1,1.6,1.9c1,0.7,1.4,2.4,1.2,3.3c-0.3,1.3-1.5,2.7-4.3,2.8c-1.8,0.1-5.1,0.3-6.3,1.2c-1.3,1-1.1,3.4-1.1,3.4
		s0.8,2.5,1,4.1c0,0-2,0.4-3.3-1.5c-1.3-1.9-1.8-5.5-0.1-7.6c1.7-2,5.4-2.2,8.4-2.3C191.7,221,191.5,219.4,191.4,218.5 M177.7,214.2
		c2.1,1.5,6.5,4.8,5.9,4.9c-1.5,0.4-3.3,1.3-3.3,1.3c-1.1-1.1-6.4-4.2-6.4-4.2C173.8,214.3,176.9,213.6,177.7,214.2 M178.4,201.7
		c-1.4,0-3.4-3.9-3.4-3.9c0.5-0.8,1.7-2.5,3.3-1.6c1.9,1.1,2.3,2.6,2.3,2.6S179.8,201.7,178.4,201.7 M183.7,170.7
		c0,0,0.6-1.4,1.4-1.2c0.5,0.2,1.1,1.1,1.3,2.4c0.2,0.9,0,2.4-0.9,2.4c-0.8,0-1.9-1.3-1.9-1.3L183.7,170.7z M184.7,144.9
		c1.3-0.9,2.9-3.8,3.4-5.4c0.5-1.6,0.2-5.7,0.2-5.7c2.5,2.2,2.9,7.7,2.4,10.8c-0.5,3.1-2,2.3-3.2,2.6c-1.2,0.3-1.9,1.8-2,2.9
		c-0.2,1.1,0.7,2.4,0.5,3.3c-0.2,0.8-1.1,1.4-1.1,1.4l-1.1-1.3c0.4-2.3-0.7-5-0.7-5C184.4,147.7,184.7,144.9,184.7,144.9
		 M179.3,125.6c0.8,1,0.9,3,0.9,3c-1-0.1-1.7,0-1.7,0C178.6,126.1,179.3,125.6,179.3,125.6 M175.9,142.4c0.2-1.6,2.3-10.7,2.3-10.7
		c0.2-1,1.8-1,2-0.1c0.3,0.8,1.9,9.5,2,11c0.1,1.4-0.3,3.4-1.2,3.9c-0.4,0.2-3.2,0.3-3.9-0.1C176.2,146,175.7,144,175.9,142.4
		 M181.5,153.4l-4.8,0c0,0-0.4-1-0.4-1.8c0-2,0.8-2.1,0.8-2.1l4.1,0c0,0,0.5,0.8,0.6,1.4C181.9,152.3,181.5,153.4,181.5,153.4
		 M179,155.7c2.6,0,3.9,0.5,3.9,2.2c-0.1,2-1.3,2.9-4,2.8c-2.7-0.1-4-0.6-4-2.7C174.8,156.1,176.4,155.7,179,155.7 M181.2,167.2v4.2
		c0,0-4.4-2.6-4.9-2.9c0,0-0.1-5,0.1-5c1.2,0.2,3.6,0.2,4.8-0.1L181.2,167.2z M168,145.9c-0.8-1.8-1.3-6.3,0.5-10.5
		c0.8-1.8,1.8-2.8,2.1-2.4c0,0-0.7,5.6,0.6,7.9c1.3,2.3,2.6,3,2.6,3s0,3.7,1.3,4.8c0,0-0.5,1-0.7,2.4c-0.1,1.1,0.3,2.4,0.3,2.4
		s-1.5,0.8-1.9,2.2c0,0-1.3-2-1.2-3.4c0.2-1.4,0.6-2.5,0.4-3.4C171.4,146.5,168.8,147.6,168,145.9 M170,163.6c0.6-1.3,2.3-4,2.3-4
		c0.3,1.4,0.9,2.3,1.4,3l-0.1,4.8c0,0-1,0-1.6,0c-0.7,0-1.7,0.5-2.3,0.2C169.3,167.3,169.5,164.8,170,163.6 M164,179.9
		c3-5.2,5.4-8.5,6.9-9.1c2.3-0.8,4.7,0.7,6.9,2c3.5,2.2,6,4,6.2,5.2c0.2,1.2-0.1,2.8-0.9,2.1c-0.8-0.7-3.4-2.4-4.2-2.4
		c-0.8,0-1.2,1.3,0,2.3c1.2,1,4.5,3.6,5,4.3c0.5,0.7,0.5,4.2-0.2,3.7c-0.5-0.3-1.5-0.8-2.7-1.4c-0.7-0.4-2.5-0.1-1.3,1.3
		c1.2,1.4,3.8,3.5,4.1,4.1c0.3,0.6,0.3,3.2-0.4,3.6c-0.8,0.4-1.1,0.5-1.5-0.2c-0.4-0.7-1.9-2.2-3-2.7c-1.2-0.5-2.4-0.5-3.4,0.4
		c-1.4,1.1-2.8,2.5-3.1,3.6c-0.3,1.6-1,2.7-2.9,3c-1.4,0.2-12.4-0.4-12.2-5.2C157.1,194.6,161,185.1,164,179.9 M155.6,198.5
		c0.9,0.3,2.6,2.5,6.9,3.3c4.7,0.8,6.5,0.3,6.5,0.3s1.6,0,0.6,1.8c0,0-1.6,1.5-7.1,0.9c-3.9-0.5-6.5-2.2-7.5-3.7
		C154,199.5,154.8,198.2,155.6,198.5 M154.4,204c0,0,2.9,2.6,7.6,3.2c4.7,0.6,7.5-0.6,7.5-0.6s1.6,0,0.6,1.8c0,0-1.6,2.3-8,1.8
		c-3.9-0.3-7.4-2.2-8.4-3.7C152.7,204.9,153.6,203.4,154.4,204 M153.2,210c0,0,5.1,3,10.1,2.9c5-0.2,6.7-1.3,6.7-1.3
		s0.5,3.3,1.1,4.6c0,0-6.3,4.7-11.8,10.4c-5.4,5.6-6.7,8.2-6.7,8.2S150,223.6,153.2,210 M147.2,272.2c2.9-1.4,6.4-1.5,6.4-1.5
		l-1.7,2.8c-3.9,0.5-7,2.9-7,2.9C144.6,274.9,145.1,273.2,147.2,272.2 M144.9,280.9c-0.3-1.4,0.4-2,0.4-2s2.9-2.1,5.3-2.4
		c0,0-1,2-1.5,3.5c0,0-1.6,0.9-3,1.9C146,281.9,145.1,282.2,144.9,280.9 M187.5,275.1c0.1,1.3-1.9,2-1.9,2c0.6-0.8,0.4-3.8,0.4-3.8
		S187.4,273.9,187.5,275.1 M184.4,260.8c0.6-1.8,0.4-2.8,0.9-2.8s1.3,1,1.4,4c0.1,4.6-1.5,7-1.5,7s-0.2,0.1-0.8,0.2
		c0,0-1.5-2.1-3.2-3.8C181.3,265.4,183.7,263,184.4,260.8 M178.5,266c1.5,1.4,4.3,5.2,4.9,6.4c0.6,1.3,0,4-0.8,4.1
		c-0.8,0.1-1.8-0.2-1.8-0.2s-0.5-2.3-1-3.3c-0.5-1-1.4-2.1-1.4-2.1s-1.6,0.2-1.1,1.5c0.5,1.3,1.4,3.8,1.3,5
		c-0.1,1.3-1.4,3.3-1.4,3.8c0,0.5-2,1.3-2.6,0.6c-0.6-0.6-0.5-2.5-0.4-3.9c0.1-1.4-1-2.5-1.4-3.3c-0.4-0.8-2.1-0.2-1.8,1.1
		c0.4,1.4,0.8,2.8,0.8,3.6c0,0.9-0.5,3.3-1.5,3.5c-1,0.3-2.4,0.1-2.5-0.8c-0.1-0.9-0.3-2.7-0.3-2.7s-0.8-1.3-1.4-1.3
		c-0.6,0-0.7,0.1-0.9,0.9c-0.2,0.8,0.8,3.3,0.1,4c-0.4,0.4-1.7,1.2-2.2,0.4c-0.5-0.8-1.2-2.1-1.8-2.8c-0.6-0.8-2.1-0.8-2.8,0
		c-0.6,0.8,0.1,1.9,0.9,2.5c0.9,0.6,1.2,3.6,3.2,3.6c1.1,0,4.1-0.6,5-1.1c0.9-0.5,2.8,0.3,3.7-0.4c0.9-0.6,2.1-0.8,2.1-0.8
		s3.6,0,4.5-0.8c2.4-1.9,2.1-3.4,2.6-4.2c0,0,2.5,0,3-0.4c0.5-0.4-0.9,2-1.6,2.6c-0.8,0.6-2.1,2.6-5.9,4c-3.8,1.4-8.9,3-11.9,3.8
		c-2.5,0.7-7,1.9-9.8,1.2c-4.7-1.1-6.8-6.4-6.8-6.4l1-1.1c0,0,1.5,0.1,2.1-0.8c0.6-0.9,3.7-8.6,5.5-10.8c1.9-2.3,10.8-5.9,14.7-6.6
		C174.8,264.8,177,264.6,178.5,266 M184.5,241.6c-4,3.3-8.2,4.2-8.2,4.2c-0.3-1.9-1.9-3.4-2.8-3.4c-0.8,0,0.4,1.1-0.1,5.8
		c-0.7,7-5.6,15-5.6,15c-5,1.5-12.6,4.8-12.6,4.8c-5.5,0-7.4,1.2-7.4,1.2c-0.5-4.6,1.8-24.4,7-32.3c6.7-10.3,18.6-17.9,18.6-17.9
		c1.7,0.6,4.7,3.2,4.7,3.2s-2.6,4-0.3,9c2.3,5.1,6.7,4.3,6.7,4.3C184.8,237.4,185.1,241.1,184.5,241.6 M190.3,240.1
		c0,0-0.1,0.9-1.3,1.2c-1.3,0.4-2,0-2,0s0.2-2.2-0.4-6.3c-0.6-3.9-1.5-6.6-1.5-6.6c-0.4-2.3,2.8-2.1,3-1.9
		C190.9,231.9,190.3,240.1,190.3,240.1 M194.7,238.8c-1.1,0.6-1.8,0.2-1.8,0.2s0.1-4.2-0.4-7.1c-0.8-4.3-1.5-5.9-1.5-5.9
		s0.2-0.1,1.3-0.4c0.6-0.1,1.2-0.5,1.5-0.1c2,2.6,2.1,10.7,2.1,10.7S195.7,238.2,194.7,238.8 M197.8,228.2c-0.5-2.5-1.5-4.8-1.5-4.8
		s1.3-1.2,0.5-4c-0.7-2.6-3.1-3.5-3.9-5.3c-0.9-2.2-1.7-2-2.4-1.1c0,0-1.9-2-4-3.4c0,0,9-6.1,16-8c5.8-1.7,11.7-2.1,11.7-2.1
		s1,1.8,2.5,3.8c0.9,1.1,2.2,2.3,2.2,2.3s-0.9,1.5-1.2,3.6c-0.2,1.3,1.6,3.1,2,4.7c0.4,1.6,1.2,3.1,4.1,2.8c2.9-0.4,7.2-3.4,7.8-4.5
		c0.6-1.1,1.2-0.1,1.2-0.1s1.7,2.9,3.8,3.7c0,0-0.4,2.1,0.3,3.3c0,0-0.3,3.9,0.6,4.8c0.9,0.9,3.6,1.9,5.9,2c0,0,0.5,3.1,0.9,5.6
		c0.4,2.4,0.9,6.4,0.9,6.4s-2.9,1.5-3.5,5.4c-0.9,5.3-0.1,9.5,1,11.1c0,0-2.1,1.1-6.9,3.2c-2.8,1.2-6.8,2.9-6.8,2.9
		s-0.9-0.4-2.2-1.4c-1-0.8-0.9-2.2-0.9-2.2s1.9,0.1,3.2-0.6c1.3-0.7,1.5-0.7,2.2-0.8c1-0.1,2.4-0.6,3.2-0.9c1-0.4,1.2-2.2,1.2-2.2
		s1.9-0.2,3.5-0.5c0.7-0.1-0.1-1.3-0.6-1.8c-0.5-0.5-2.5-0.5-3.6-0.4c0,0-1.4-1.6-2.6-2.8c-1.1-1.1-3.1-2.4-5.7-2.6
		c-2.5-0.2-5.7,0.3-8.3,2.1c0,0-1.6,1.1-1.9,1c-1.3-0.4-5.9-1.3-8.2-5.8c-1.8-3.6-3.1-7.5-3.7-8.4c-0.6-1-1.2-0.2-1.6,0
		c-0.4,0.2-3.1,2.1-4.2,2.8C198.6,235.6,198.6,232.2,197.8,228.2 M199.8,238.4l2.9-1.9c0,0,3,7.6,5.8,10c2.8,2.4,6.3,3.5,6.3,3.5
		s-1.1,2.4-1.6,6.1c-0.6,5.2,0.9,8.4,1.7,10.4c0,0-3.6,1.6-6.4,1.2c0,0,1.1-2.8,0.9-4.2c-0.1-1.4-1-3-3-6
		C204.6,254.4,199.3,243.4,199.8,238.4 M203.4,271.9c1.4-1.6,3.5-1.4,3.5-1.4c3.5,0.6,9.6-1.6,9.6-1.6c1.5,1.5,3.5,4.3,3.5,4.3
		s-2.3,1.2-5.9,2.5c-3.5,1.3-9.4,2.4-11.1,1.5C201.4,276.3,202,273.5,203.4,271.9 M202.1,280.2c0,0,2.8,0.4,7.8-0.6
		c5.6-1.2,11.5-4.2,11.5-4.2c1,1,1.7,3.9-0.5,5.7c-3.8,3.2-6.8,4.2-12.1,5.3c-4.2,0.9-7.4-0.4-7.4-0.4
		C198.7,283.8,202.1,280.2,202.1,280.2 M199.1,294.2c0,0,2.2,4.3,8.1,8.5c8.3,6,21.2,8.3,27.9,8.7c0,0-1.6,4.6-4.9,7.3
		c0,0-3.3-0.8-5.8-3.3c-0.6-0.6-1.9-0.1-3.1-0.2c-2.6,0-4.8,0-8.1-2.1c-3.1-2-3.3-3.7-4.2-4.2c-1-0.5-1.6,0.1-4.8-0.9
		c-3.1-1-5.8-3.3-7.8-6.4c-1-1.5-1.5-1.7-1.5-1.7s-3-0.1-4.8-0.7c-2.5-0.8-2.8-1.6-2.8-1.6S193.5,293.5,199.1,294.2 M193.5,303
		c0,0,1.2,3.1,6.3,6.3c4,2.5,7.8,2.4,7.8,2.4s2.1,3.6,6.9,5.8c4.2,1.9,8.4,0.6,8.4,0.6s1.9,2.2,4.8,3.1c0,0-8.3,6.6-13.7,7.2
		c0,0-5.2-1.4-12.5-8.3c-6.5-6.1-16.2-14.5-25.7-16.1l8.7-4.6C184.4,299.4,187.9,302.4,193.5,303 M164.6,297.7
		c5.6-0.2,7.3,1.1,7.3,1.1s3.2-2.5,6.6-2.7c3-0.2,4,1,4,1l-13.7,7.4c0,0-3-2.3-6.6-1.5c-3.6,0.8-5.6,2.7-7.4,4.1
		c-0.6-0.3-1.7-1-2.9-2.3C151.9,304.8,156.5,298,164.6,297.7 M146.8,303.5c0,0,2.1,2.7,3.8,4c1.2,0.9,1.8,1.4,2.3,1.7
		c0,0-1.2,1.7-2.5,3.1c-2.7,2.7-4,2-4,2c-2.6-1-2.9-3.5-2.2-5.2C144.8,307.4,146.8,303.5,146.8,303.5 M139.5,332.1
		c0,0-0.2,5.4,2.7,6.9c0,0-17,0.7-18.3-17.6c-0.4-5.8,1.7-10.2,4.5-12.2c2.2-1.6,5.4-1.3,3.5,2c0,0-2.6,3.1-3,8.4
		C128.4,326.7,132.7,331.9,139.5,332.1 M138.3,328.9c0,0,0.1-2,0.4-3.2c0.2-1.1,0.7-1.3,1.3-1.1c0.4,0.2,0.7,0.6,0.7,0.6l-0.7,3.9
		C140.1,329.2,139.4,329.3,138.3,328.9 M142.2,333.5c-0.2-2.5,0.6-6.1,0.9-6.4c0.3-0.3,2.2-0.5,2.6,1.3c0.2,0.8-0.1,2.3-0.2,3.7
		c0,0-0.4,3.3-0.4,4.8c0,0.5-0.6,0.5-0.9,0.4l-0.9-0.6C143.3,336.7,142.4,336,142.2,333.5 M144.6,324.2c0.1-1.4,1.5-4.6,2.4-4.8
		c0.8-0.2,2.3,1.2,1.7,2.3c-0.6,1.1-1.3,3.2-1.3,3.2C146.1,324.9,144.6,324.2,144.6,324.2 M133,288.6c0,0,0.4,1.9,1,2.8
		c1.4,1.8,3.7,1.6,6.6,1.9c2.7,0.3,4.6,1.8,4.7,4c0.2,3.5-2.9,8.4-3.8,11c-1.2,3.2,0,6,1,7c1.6,1.8,2.3,1.5,2.9,1.9
		c-1.9,1.7-3.1,5.2-3.1,5.2s-0.8,0.1-2-0.3c-1-0.3-2.1-0.5-2.7,0.3c-1.5,2-1.6,5.6-1.6,5.6c-3.4-0.9-4.8-5.7-4-10.2
		c0.8-4.5,6.1-10.7,7.3-13.8c2.1-5.4,0.2-7.6-3-9.6c-2.3-1.5-3.2-1.3-3.8-2.4C131.6,290.6,133,288.6,133,288.6 M123.2,270.5
		c-1.1,0.9-3.7,3.5-4.2,8.3c-0.4,3.6,0.7,7.2,2.8,9.6c1.8,2,4.4,3,7.3,3c0,0.7,0.3,1.4,0.7,2c-4.6,1.4-12-0.7-14.8-5.7
		c-2.7-4.9-3.4-14.2,3.8-18.5c1.9-1.2,3.4-1.6,4.4-1.7C122.9,268.5,122.9,269.5,123.2,270.5 M119.7,295.2c-0.7,0.5-2,1.2-3.5,1.2
		c-1.5,0.1-3.6-0.4-4.9-2.7c-1.5-2.5-0.6-5.6,0.3-7c0.3,0.9,0.7,1.7,1.1,2.4C114.1,291.9,116.7,294,119.7,295.2 M123.9,264.8
		c-2.3,0-4.3,0.6-6.4,1.7c-6.3,3.4-7.8,10.5-7,16.1c-2.4-1.6-3-4.2-3.1-5.8c-0.3-4.3,2.2-10.2,7.5-13.2c1.9-1,3.5-1.4,4.8-1.4
		c2.3,0,3.8,0.9,4.4,1.5C124.5,264.1,124.3,264.8,123.9,264.8 M104.8,246.8c-3.8-6.3-1.8-16.1,4.1-20.1c0.5-0.3,0.7-0.9,0.6-1.5
		c0-0.1-1.9-9.6,5.8-14.1c5.2-3.1,8.7-2,10.3-1.1c2.1,1.2,3,3,3.1,4.2c0,2.3-1.5,3.7-3,4c-0.5,0.1-2,0.3-2.7-1.1
		c-0.2-0.4-0.5-0.7-0.9-0.8c-0.4-0.1-0.9,0-1.2,0.2c-1.3,1-3,4.9-0.7,8.1c0.8,1.2,2.6,2.5,4.3,3.6c2.6,1.6,5.5,3.3,6.9,6.6
		c2.2,5,1.8,9.7,1.7,10.3c0,0.5-0.1,0.9-0.1,1c0,0.6,0.1,0.6,1.4,1.1c1.2,0.5,5.2,3.1,5.8,8.9c0.5,4.9-1,10.3-3.7,13.5
		c-1,1.2-2.6,2.6-4.8,2.7c-3.3,0.2-5.1-1.2-5.7-2.4c-0.2-0.5-0.2-1-0.1-1.5c0.1,0.1,0.2,0.2,0.3,0.3c2,1.4,4.9,1.6,7.3,0.3
		c2.9-1.5,4.5-4.6,4.3-8.6c-0.2-6.5-5.2-10.5-7.4-11.9c0.5-2.2,0.8-7.2-3.6-12.3c-2.5-2.9-5.9-4.5-9.4-4.4c-3.1,0.1-5.9,1.4-7.6,3.9
		c-1.2,1.7-1.5,4.2-0.7,6.1c0.6,1.4,1.7,2.3,2.9,2.5c1.4,0.2,2.5-0.1,3.2-0.8c0.1-0.1,0.2-0.2,0.3-0.3c0.4,0.3,0.7,0.6,1,1.1
		c0.4,0.8,0.5,1.9,0.1,3.2c-0.5,1.7-2.1,2.8-4.2,3.1C110.1,251.1,106.8,250.2,104.8,246.8 M102.1,304.8c-3.3-6.1-2.3-11.7-1.1-14.4
		c0.3-0.5,0.1-1.2-0.3-1.6c0,0-4-3.9-4.6-9.4c-0.7-5.6,1-14.6,5-19.8c3.5-4.6,6.7-6.4,6.7-6.4c0,0,0.1,0,0.1-0.1
		c1.7,0.6,3.4,0.8,4.8,0.6c3.2-0.4,5.8-2.3,6.6-5.1c0.7-2.1,0.6-3.9-0.3-5.5c-1.2-2.2-3.1-2.9-3.4-3c-0.5-0.1-1.3-0.2-1.7,0.1
		c-0.4,0.3-0.6,0.7-0.5,1.1c0,0,0,0.1-0.1,0.1c-0.1,0.1-0.4,0.4-1,0.1c-0.1-0.1-0.5-0.3-0.7-0.8c-0.3-0.8-0.3-1.9,0.4-3
		c1-1.8,3.1-2.8,5.3-2.9c2.6-0.1,5.4,1.1,7.3,3.3c4.6,5.5,2.8,10.5,2.7,10.7c-0.3,0.7,0,1.4,0.7,1.8c0.1,0,6.7,3.5,6.9,10
		c0.1,3.8-1.7,5.4-2.8,6c-1.4,0.7-3.2,0.7-4.2-0.1c-0.8-0.6-1.1-1.6-0.9-2.8c0.1-0.4,0-0.8-0.3-1.1c-1.6-2.1-6.5-5.2-13.3-1.5
		c-5.7,3.1-9.4,9.7-8.9,15.9c0.3,3.6,1.9,6.5,4.6,8.1c-1.3,2-2.5,5.5-0.7,9.5c1.2,2.9,4.3,4.6,7.4,4.6c0.1,0,0.3,0,0.4,0
		c2.6-0.1,5.3-1.5,6.4-3.1c3.4,0.8,6.9,0.6,9.5-0.6c0.1-0.1,0.5-0.2,0.5-0.2c3.2,1.3,5.3,2.7,4.7,5.3c-0.5,2.2-1.6,3-1.6,3
		c-3.1-6-18.9-6.8-24.1,7.5C110.8,311.2,104.9,309.9,102.1,304.8 M132.8,347.5c-10.3-3.4-23.2-16.6-19.2-32.8
		c2.8-11.7,12.2-12.8,15.8-12.2c3.3,0.6,5.1,3.1,2.1,3.4c-2.4,0.3-4.4,0.2-7.1,3.7c-3,3.8-5,12.4-0.9,20.9
		c6.3,13.2,17.4,12.4,22.2,11.6c0,0,1.6,3.7,2.5,4.8C148.2,346.7,141.3,350.2,132.8,347.5 M151.3,346.9c-7.5-10.3-1.2-22.1,0.7-24.3
		c1.5-1.7,5.2-2.7,5.2-2.7s-5.9,7.6-4.8,17.5c1.4,13,21.9,17.6,36.9,21.7c0,0-0.9,3.4-2.2,3.8C186.3,363.2,158.2,356.3,151.3,346.9
		 M218,403c0,0-9.3,0.7-16.9-5.6c-6.9-5.7-8.5-10.9-8.6-14c-0.1-2.8-2.4-2.2-2.6-0.3c-0.2,1.6,0.4,5,0.4,5s-2.1,1.1-5.8,1.6
		c-4,0.5-13.5-2.2-15.8-10.5c0,0-7.7-0.5-12.2-7.3c-4.5-6.7-5.2-14.8-2.7-19.2c0,0,5,3.6,9.4,5.4c0,0-0.3,5.8,3.9,10.6
		c3.1,3.6,6.8,3.8,6.8,3.8s3.7,8.9,12.3,8.9c9.4,0,12.2-8.7,12.2-8.7s1.2,1.3,1.5,1.7c0.2,0.2,3-1.2,4.4-2.9
		c1.3-1.7,3.1-4.4,3.1-4.4l2.4,0.9c0,0,1,2.2,3.7,2.5c0,0,0.6,2.2,2.1,2.4c0,0-0.9,4.7,0,8.1c0.9,3.4,2.3,11.1,2.3,11.1
		s-5.4,0.7-10.9-3.4c-5.9-4.5-4.2-10.8-2.4-12.3c3.3-2.8,8,0.1,5.4,3.4c0,0-0.1,2.4,2.1,1.2c2.2-1.2,2.4-4.4,0.3-6.6
		c-2.1-2.2-6.6-2.8-9.5-0.4c-3.7,3-5.1,9.4,0,15.1c6.1,6.9,15.1,6.4,15.1,6.4S216.8,399.6,218,403 M229,402.1
		c-0.9,2.2-3.1,1.6-3.1,1.6s-0.4-1-0.8-2.3c-0.4-1.1-0.2-2.5-0.2-3.5c0-2.5-1.5-2.5-1.5-2.5c-0.3,1.9-1.3,3.1-1,4.6
		c0.3,1.5,0.6,2.7,0.7,4c0.1,1.8-1.9,1.3-1.9,1.3s-0.4-3-0.9-5.1c-0.5-2.2,0.7-4.5,0.7-4.5c0.5-1.8-0.8-9.1-2-13.7
		c-1.2-4.6-0.6-7.8-0.6-7.8c3.7,0,8-2.5,10.9-9.1c3.4-7.8,1.3-14.9,1.3-14.9s8.2,0.9,10.3,3.4c2.1,2.5,2.4,5.2,0.6,9.2
		c-3.3,7.4-5.9,13.6-6.3,17c-0.6,6.1-0.9,9.6-2.2,11.5c-1.3,1.9-3.7,3.6-3.7,5.4C229.4,398.4,229.7,400.5,229,402.1 M238.8,379.4
		l4.8,1.6c0,0-0.4,7.1-6.6,8.4c0,0,0.3-1.5,0.8-3.9C238.4,383,238.1,382,238.8,379.4 M245.4,397.4c-5.8,5.5-12.8,4.8-12.8,4.8
		s0.5-1.8,0.3-2.8c-0.3-2.3,0.6-4.8,3.1-6.1c4.2-1.1,6.8-2.5,8.5-5.9c1.3-2.5,1.9-5.9,1.9-5.9l4.5,0.2
		C250.9,381.7,251.2,392,245.4,397.4 M250.8,378.4c-7.5-0.5-11.2-2.5-11.2-2.5s1-4.3,2.7-7.7c3.2-6.2,3.2-7.3,3.2-7.3
		c1.2,0.4,2.7,0.7,2.7,0.7s-1.4,0.9-1.3,3.8c0.2,4.3,4.6,7.7,7,8.9c2.4,1.2,3.3,1,2.3-0.7c-1-1.8-0.3-5.4,0.1-7.2
		c0.5-2-0.1-3.2-0.1-3.2l2.3,0.1c2.5,10.3,6.1,12.5,6.1,12.5S259.8,378.9,250.8,378.4 M337.2,383.1c-8.6,3.7-15.4,1.9-16.8,1.3
		c-1.3-0.5-1.7,0.1-1.9,1.3c-0.4,2.1-2,8.5-11.1,12.3c-8.6,3.7-15.7,1.4-17.1,0.8c-1.4-0.6-2.5-0.2-4.1,0.9c-2,1.4-9.7,5.2-19.1,1.1
		c-10.2-4.5-13.5-12.3-13.1-19.3c0,0,4.8-0.3,6.3-0.8c0,0,2.6,9.9,13.1,11.9c8.7,1.6,14.4-3.5,14.4-3.5s8.6,4.1,16.7-0.3
		c8-4.4,11.3-13.4,11.3-13.4s10.9,6,20.1-0.1c9.8-6.5,7.2-17.9,1.2-19.4c-5.2-1.3-8.6,2.2-7.8,5.5c0.8,3.3,1.9-0.7,3.4,0.4
		c1.6,1.2,1.1,6.7-4.3,7.8c-5.5,1.2-10-1.1-12.1-2.6c0,0,0.3-1.8,0.3-3.3c0,0,2.6-0.3,3.2-2.3c0,0,2.2,0,4.3-1.5
		c1.7-1.2,1.7-2.8,1.7-2.8s2.4,0,4.4-2.5c1.4-1.8,1-4.1,1-4.1s1.6-0.3,2.5-1.4c1.3-1.6,1.3-2.8,1.3-2.8s1.7-0.7,3.4-0.3
		c1.2,0.2,10.2,3.7,11.8,12.2C352.4,368.6,347,378.9,337.2,383.1 M405.6,288.7c-2,6.9-7.4,11-13.6,11.5c-0.7,0-1.2,0.3-1.4,0.9
		c-0.2,0.6,0.1,1.2,0.5,1.7c2.7,3,3.4,6.3,3.4,6.3c0.9,4.8,0.3,9.9-1.5,14c-3,6.8-8.7,7-9.2,7.7c-0.6,0.7-0.4,0.7-1,4.8
		c-0.7,5.6-8.7,13-19.1,14c-7.8,0.8-13.2-0.3-16.1-2.2c-4.1-2.8-9-6.2-8.2-9.7c-2.2-1.9-1.7-6.3-1.7-6.3s0.2-5.1,4.5-9.7
		c4.7-4.9,13.4-9.3,13.4-9.3s1.9-0.3,5.6,1.1c3.7,1.4,4.7,7,2.6,9.8c-2.1,2.8-5.5,0.8-5.5,0.8c0.1-2.6-5.1-6.5-9.2,0.1
		c-3.7,6.1,0.4,16,11,15.6c13.8-0.6,15.7-12,15.7-12s4.4-1.2,7.2-5.5c3.9-6,1.5-12.5,1-13.9c-0.6-1.4-2.3-1.2-2.1,1
		c0.6,4.4,1.6,10.7-4.4,14.4c-1.1,0.7-3.6,1.8-3.6,1.8s-0.7,0.3-0.8,1.2c-0.6,3.8-2.8,6.7-6.6,8.7c-3.8,1.9-11.3,2.4-14.3-1.8
		c-3-4.1-1-9.2,1-9.9c1.9-0.7,1,1.5,1,1.5c-2.1,5.2,2.2,9.4,9.2,7.7c7-1.6,7.3-8.1,7.3-8.1s4.3-1.5,5.8-5.9
		c1.2-3.6,2.2-10.2-2.9-14.6c-4-3.4-9.2-3.4-9.2-3.4c0.8-1.2,1.1-4.7,1.1-4.7c1.9-0.4,6.3,0.2,9.5,2.2c2.3,1.5,4,3.2,5.2,5.1
		c1.3,2,2,0,2,0s0.2-2.6-5.3-7c-4.1-3.3-11.2-3.4-11.2-3.4c0-5-2.2-9.6-2.5-10.1c1.8-0.8,5.3-2,9-1.2c2.6,0.5,5.5,2.6,6.6,5.7
		c1,2.9-0.1,5.2,0.1,5.7c0.4,1,1.1,1.1,1.6,1.1c0,0,0.2,0,0.5,0c1.9,0,7.6-0.4,11.4-6c3.4-4.9,3.4-13.5,0.2-19.6
		c-2.9-5.3-7.9-8.2-14.2-8.1c-0.1,0-0.2,0-0.3,0c-0.7-0.8-1.7-1.3-2.7-1.7c-1.9-0.6-3.8,0-5.1,0.8c-2,1.3-2,3.1-2,3.4
		c-0.1,0.8,0.5,1.5,1.2,1.6c0.8,0.1,1.5-0.5,1.6-1.2c0,0,0.1-1,1-1.5c0.6-0.4,1.5-0.7,2.5-0.3c1.7,0.5,2.9,2.3,3.1,4.5
		c0.1,1.2-0.2,4.3-4,6c-2.4,1.1-5.7,0.8-8.4-0.9c-3.5-2.1-5.7-5.9-5.9-10.2c-0.3-6.8,4.9-9.9,7.5-10.3c0.5-0.1,0.9-0.4,1.1-0.8
		c0.2-0.4,0.2-0.9,0-1.3c-0.2-0.3-3.6-6.8,2.6-13.2c5.1-5.2,13-6.3,18.1-2.5c1.8,1.4,2.2,3.5,2,4.9c-0.2,1.2-0.8,2.1-1.6,2.4
		c-1.1,0.4-2.7-0.3-4.5-1.8c-0.5-0.4-1.2-0.5-1.7-0.2c-0.3,0.2-3,1.5-3.2,4.5c-0.1,1.9,0.3,4.1,2.5,5.8c1.9,1.5,4.2,2,6.7,2.5
		c3.1,0.6,6.2,1.3,9.3,3.9c5.9,5.1,7.5,11.6,4.6,18.1c-0.2,0.6-0.1,1.2,0.4,1.6C403,275,407.9,280.8,405.6,288.7 M269.8,209.9
		c0,0-2-3.1-4.1-8.1c-1.1-2.6-2.2-5.5-2.8-7.9c0.1,0,0.3,0,0.3-0.1c0.8,0.6,1.5,0.9,2.1,0.9l0,0c0.8,0,1.5-0.3,2-0.7
		c0.5-0.4,0.9-1,1.2-1.6c0.4-0.1,1.3-0.5,1.7-1.9c0,0,0-0.6-0.4-0.4c-0.4,0.2-1.2,0.2-1.8,0.2c-0.2,0-0.3,0-0.5,0
		c-0.2,0-0.3,0-0.4,0c-0.3,0-0.6,0-0.9,0c0.4-0.2,0.9-0.3,1.4-0.4c0.9-0.1,1.5-0.4,2-1c0.4-0.5,0.7-1.6,0.7-1.9
		c0-0.3-0.4-0.5-0.6-0.2c-0.2,0.2-0.6,0.5-0.9,0.6c-0.3,0.1-0.8,0.1-1.4,0.1c-1.6,0.1-2.8,1.2-3.2,1.5c-0.6,0.5-1,1.4-1.4,2.3
		c-0.1,0.2-0.2,0.4-0.2,0.7c-0.1-0.7-0.2-1.4-0.1-1.9c0.3-2.3,3.3-5.5,4.7-6.7c0.8-0.7,2-1,3.3-0.9c1.4,0.1,1.9-0.5,1-1.3
		c-1-0.9-4.1-1-5.8,0.7c-1.3,1.4-2.8,2.9-3.3,3.6c-0.6,0.9-0.9,1.8-1.2,2.3c-0.3,0.5-0.9,0.2-1.3-0.7c-0.6-1.3-1.4-1.6-1.6-0.3
		c-0.2,1.3,2,4,0.7,6.7c-0.5,1-0.2,0.8-1.1,1.9c-0.9,1-0.4,3.9,0.4,2.7c0.6-0.8,1-0.9,1.4-1.6c1.2-1.7,1.5,0.1,1.5,0.1
		s1.3,2.8,2.7,6.6c1.5,3.8,2.8,5.9,3.9,8.3c0.7,2.2,0.7,3.9,0.7,3.9l-4.2,1.8c-0.2-3.1-1.5-6.7-1.6-5.7c-0.3,2.2-1.1,17.7-1.1,17.7
		c-1-0.1-2-0.1-2.7,3c-0.6,3.2,1.9,6.6,1.9,6.6s-0.7,6.9-2,10.7c-1.2,3.8-4.2,5.5-5.8,5.7c-1.6,0.1-6.3-0.3-8-1.7
		c-1.4-1.1-1.4-8.1-0.9-10.5c0.5-2.4,1.6-2.3,1.6-2.3s0.8,7.9,0.7,9.2c-0.1,1.3,0.6,1.4,1.3,0.8c0.6-0.6,0.6-6.8,0.2-11.4
		c-0.4-4.7-1.8-14.4-2.6-17.5c-0.8-3.2-0.9-5.9-1.4-8c-0.4-1.4-0.4-0.6-0.4-0.6l-0.6,5c0,0-1.3-0.3-2.4-0.6c-1-0.3-1-0.7-1-1.5h-0.1
		c0-0.8,1.9-7.4,2.9-11.3c1-3.9,1.3-7.8,1.3-7.8s-0.2-1.3,1-0.5c0.6,0.5,0.9,1.6,1.6,2.4c0.9,1.1,1.5-0.9,1.1-1.8
		c-0.6-1.3-1.2-2.5-1.7-3.5c-1.4-2.7,0.8-5.5,0.6-6.7c-0.2-1.3-1-1-1.6,0.3c-0.4,1-1.1,1.3-1.4,0.8c-0.3-0.5-0.9-1.2-1.4-2.1
		c-0.4-0.8-2.1-2.5-3.7-3.4c-1.9-1.1-3.6-1.1-5.1-0.8c-1,0.2,0.2,1.6,1.5,1.8c1.3,0.2,2.6,0.8,3,1.2c1.4,1.4,3.9,3.2,4.3,5.4
		c0.1,0.7,0.1,1.7,0.1,2.9c-0.1-0.4-0.3-0.8-0.5-1.3c-0.4-0.9-0.9-1.8-1.5-2.3c-0.4-0.3-1.7-1.3-3.3-1.3c-0.6,0-1,0-1.4,0
		c-0.4-0.1-0.8-0.3-0.9-0.6c-0.1-0.3-0.5-0.1-0.6,0.3c0,0.4,0.3,1.3,0.8,1.9c0.4,0.5,1.1,0.8,2,0.9c0.5,0,1,0.1,1.4,0.3
		c-0.3,0-0.6,0-0.9,0.1c-0.1,0-0.3,0-0.4,0.1c-0.2,0-0.4,0.1-0.5,0.1c-0.6,0.1-1.3,0-1.8-0.1c-0.5-0.1-0.4,0.4-0.4,0.4
		c0.5,1.3,1.4,1.7,1.8,1.8c0.3,0.6,0.7,1.1,1.3,1.5c0.5,0.4,1.2,0.7,2,0.6h0c0.7-0.1,1.3-0.4,2.1-1c0.1,0,0.3,0.1,0.5,0
		c0.1,0,0.2,0,0.3-0.1c-0.1,2.8-0.5,6.4-1.2,9.2c-1.1,4.5-3,9.7-3,9.7s-1.8-0.9-2.9-2.5c-0.8-1.2-1.8-3.3-2.3-6.8
		c-0.5-3.5-2.2-6.5-3.8-9.1c-1-1.7-1.7-6.3-1.5-8.6c0.1-2.4-0.5-5.2-1.1-6c-1.7-2.3-2.5-10.9-0.6-14.8c1.9-3.9,9.9-7.2,14.6-7.2
		c4.8,0,10.3,2.3,10.3,2.3s5.4-1.6,10.7-2.1c5.3-0.5,11.4,2.8,14.3,5.3c3.5,3,3.6,8.2,3.3,10.2c-0.4,2-2.1,4.2-2,5
		c0.1,0.9,0.6,7.4,0.4,11.6c-0.3,4.2-1.9,6.7-3.2,8.8c-1.3,2.1-0.9,6.8-0.7,8.2c0.1,1.4-1,2.6-1.8,3.1
		C270.4,210.7,270.4,210.9,269.8,209.9L269.8,209.9z"/>
</g>
</svg>
